# Exported from Wings 3D 1.5.4
mtllib barnbasic.mtl
o Cube1
#84 vertices, 65 faces
v -4.50000000 0.0000000e+0 -3.00000000
v -4.50000000 0.0000000e+0 3.00000000
v -4.50000000 4.00000000 -3.00000000
v -4.50000000 4.00000000 3.00000000
v 4.50000000 0.0000000e+0 -3.00000000
v 4.50000000 0.0000000e+0 3.00000000
v 4.50000000 4.00000000 -3.00000000
v 4.50000000 4.00000000 3.00000000
v -4.50000000 5.81002240 -3.00000000
v -4.50000000 5.81002240 3.00000000
v 4.50000000 5.81002240 3.00000000
v 4.50000000 5.81002240 -3.00000000
v -4.50000000 7.14009900 0.0000000e+0
v 4.50000000 7.14009900 0.0000000e+0
v -4.50000000 7.32215566 0.0000000e+0
v 4.50000000 7.32215566 0.0000000e+0
v -4.68205666 5.81002240 -3.18205666
v -4.68205666 5.81002240 3.18205666
v 4.68205666 5.81002240 3.18205666
v 4.68205666 5.81002240 -3.18205666
v -4.68205666 7.14009900 0.0000000e+0
v 4.68205666 7.14009900 0.0000000e+0
v -4.68205666 7.32215566 0.0000000e+0
v 4.68205666 7.32215566 0.0000000e+0
v -4.68205666 5.99207906 3.18205666
v 4.68205666 5.99207906 3.18205666
v 4.68205666 5.99207906 -3.18205666
v -4.68205666 5.99207906 -3.18205666
v -2.82455187 4.00000000 3.00000000
v -0.77544813 4.00000000 3.00000000
v 0.77544813 4.00000000 3.00000000
v 2.82455187 4.00000000 3.00000000
v 2.82455187 5.81002240 3.00000000
v 0.77544813 5.81002240 3.00000000
v -0.77544813 5.81002240 3.00000000
v -2.82455187 5.81002240 3.00000000
v -2.82455187 4.00000000 -3.00000000
v -0.77544813 4.00000000 -3.00000000
v 0.77544813 4.00000000 -3.00000000
v 2.82455187 4.00000000 -3.00000000
v -2.82455187 5.81002240 -3.00000000
v -0.77544813 5.81002240 -3.00000000
v 0.77544813 5.81002240 -3.00000000
v 2.82455187 5.81002240 -3.00000000
v -1.02455187 4.12455187 3.00000000
v -1.02455187 5.68547053 3.00000000
v -2.57544813 5.68547053 3.00000000
v -2.57544813 4.12455187 3.00000000
v -2.57544813 4.12455187 -3.00000000
v -2.57544813 5.68547053 -3.00000000
v -1.02455187 5.68547053 -3.00000000
v -1.02455187 4.12455187 -3.00000000
v 2.57544813 4.12455187 3.00000000
v 2.57544813 5.68547053 3.00000000
v 1.02455187 5.68547053 3.00000000
v 1.02455187 4.12455187 3.00000000
v 2.57544813 5.68547053 -3.00000000
v 2.57544813 4.12455187 -3.00000000
v 1.02455187 4.12455187 -3.00000000
v 1.02455187 5.68547053 -3.00000000
v 4.50000000 4.00000000 -1.10848066
v 4.50000000 4.00000000 1.10848066
v 4.50000000 5.81002240 -1.10848066
v 4.50000000 5.81002240 1.10848066
v 4.50000000 5.70154174 0.89151934
v 4.50000000 4.10848066 0.89151934
v 4.50000000 4.10848066 -0.89151934
v 4.50000000 5.70154174 -0.89151934
v 4.50000000 0.0000000e+0 -1.13258747
v 4.50000000 0.0000000e+0 1.13258747
v 4.50000000 3.32048585 1.08186166
v 4.50000000 3.32048585 -1.08186166
v 4.50000000 3.05541253 -0.94085717
v 4.50000000 3.05541253 0.94085717
v 4.50000000 0.13258747 0.87056293
v 4.50000000 0.13258747 -0.87056293
v 4.64785512 0.13258747 -0.87056293
v 4.64785512 4.5776086e-18 -1.13258747
v 4.64785512 3.32048585 -1.08186166
v 4.64785512 3.32048585 1.08186166
v 4.64785512 4.5776086e-18 1.13258747
v 4.64785512 0.13258747 0.87056293
v 4.64785512 3.05541253 0.94085717
v 4.64785512 3.05541253 -0.94085717
vt -0.97082582 -0.90703077
vt -0.97082582 0.16914350
vt -0.97082582 0.47884381
vt -0.97082582 -0.59733045
vt -0.97082582 0.96581870
vt -0.97082582 0.65611838
vt -0.64721721 -0.20534346
vt -0.64721721 0.87083081
vt -0.64721721 1.35780569
vt -0.52005728 0.47884381
vt -0.52005728 0.96581870
vt -0.52005728 0.16914350
vt -0.52005728 0.65611838
vt -0.50603286 0.39294608
vt -0.45990525 0.37964925
vt -0.38042679 0.31273991
vt -0.37186541 0.23389944
vt -0.35528174 -0.35825385
vt -0.34678875 -0.33326181
vt -0.34410399 0.23348666
vt -0.33825979 0.31840805
vt -0.33533542 0.82439401
vt -0.32761555 0.79951260
vt -0.31333532 0.23329847
vt -0.27706755 -0.66443485
vt -0.27571217 1.01071920
vt -0.27571217 0.34612865
vt -0.25483658 0.56051270
vt -0.25483658 1.22510325
vt -0.22992981 -0.65428909
vt -0.19604993 0.97088808
vt -0.19604993 0.38595977
vt -0.16747675 -0.76258239
vt -0.16747675 0.31359187
vt -0.16747675 0.80056676
vt -0.16337252 0.60624472
vt -0.16337252 1.17937123
vt -0.15793166 -0.59448499
vt -0.11239364 -0.58304525
vt -0.10044097 0.83662703
vt -6.3757225e-2 0.84045301
vt -5.0114624e-2 4.5188791e-2
vt -3.6424538e-2 1.40050070
vt -3.6312516e-2 1.87324100
vt -3.0979585e-2 1.84433659
vt -1.4800254e-2 1.52944342
vt -1.0925313e-2 0.50257298
vt -8.5676461e-3 1.39957592
vt -2.3111111e-3 0.92970846
vt -2.3111111e-3 3.6255556e-2
vt 0.0000000e+0 0.0000000e+0
vt 0.0000000e+0 1.00000000
vt 0.0000000e+0 1.00000000
vt 5.5511151e-17 0.0000000e+0
vt 1.6653345e-16 1.00000000
vt 2.7755576e-16 2.7755576e-16
vt 1.3567886e-3 1.00118879
vt 2.0227794e-2 8.6673736e-2
vt 3.1240898e-2 0.96581870
vt 3.1240898e-2 0.47884381
vt 3.1240898e-2 0.16914350
vt 3.1240898e-2 0.65611838
vt 4.4392732e-2 1.15343325
vt 4.9099661e-2 0.12620972
vt 8.9627063e-2 0.86950648
vt 9.4777346e-2 -0.15820431
vt 0.14909655 0.49359115
vt 0.15030343 -0.36548267
vt 0.15434649 -0.53451066
vt 0.15991349 1.71565425
vt 0.16925954 -0.84888692
vt 0.17673444 -0.87916543
vt 0.17771218 -0.36699687
vt 0.20239941 0.15719495
vt 0.21440271 1.10638404
vt 0.21850473 1.05414822
vt 0.23774174 0.16023530
vt 0.25751203 0.90156033
vt 0.28047678 0.95284829
vt 0.33493857 -0.76258239
vt 0.34142436 0.80056676
vt 0.34142436 0.31359187
vt 0.34858603 0.13077297
vt 0.36031344 -0.22510325
vt 0.36031344 0.86825540
vt 0.36031344 0.43948730
vt 0.36031344 0.20366485
vt 0.36031344 -1.0719203e-2
vt 0.36031344 0.65387135
vt 0.40607403 1.17937123
vt 0.40607403 0.60624472
vt 0.44849956 0.16914350
vt 0.44849956 0.47884381
vt 0.44849956 0.96581870
vt 0.44849956 0.65611838
vt 0.45177750 0.60813933
vt 0.45177750 -0.17937123
vt 0.45177750 3.5012825e-2
vt 0.45177750 0.82252338
vt 0.45177750 0.24939688
vt 0.45177750 0.39375528
vt 0.45863295 0.38595977
vt 0.45863295 0.97088808
vt 0.48764586 8.6673736e-2
vt 0.49753808 1.22510325
vt 0.49753808 0.56051270
vt 0.50651686 1.00118879
vt 0.53829519 1.01071920
vt 0.53829519 0.34612865
vt 0.55798827 4.5188791e-2
vt 0.63965395 1.15841531
vt 0.93072187 0.13077297
vt 0.93788354 0.31359187
vt 0.93788354 0.80056676
vt 0.94436932 -0.76258239
vt 0.96704419 -0.20534346
vt 0.96704419 0.87083081
vt 0.96704419 1.35780569
vt 0.99357917 1.1102230e-16
vt 0.99357917 1.00000000
vt 0.99357917 1.1102230e-16
vt 0.99357917 1.00000000
vt 0.99357917 0.0000000e+0
vt 0.99357917 1.00000000
vt 0.99357917 0.0000000e+0
vt 0.99768889 0.92970846
vt 0.99768889 3.6255556e-2
vt 0.99979774 0.96581870
vt 0.99979774 0.47884381
vt 0.99979774 0.65611838
vt 0.99979774 0.16914350
vt 1.02122405 3.5012825e-2
vt 1.02122405 0.39375528
vt 1.02122405 0.24939688
vt 1.02122405 0.82252338
vt 1.02122405 0.60813933
vt 1.02122405 -0.17937123
vt 1.11268810 0.43948730
vt 1.11268810 -1.0719203e-2
vt 1.11268810 0.20366485
vt 1.11268810 -0.22510325
vt 1.11268810 0.86825540
vt 1.11268810 0.65387135
vt 1.17687159 0.23287993
vt 1.20695260 0.23258125
vt 1.20819290 -0.33251130
vt 1.21061067 0.80526798
vt 1.21612339 -0.35772345
vt 1.21875455 0.83080239
vt 1.23564511 0.23255295
vt 1.27163212 0.44727916
vt 1.29456681 0.49851671
vt 1.37940844 0.57062773
vt 1.40093220 0.62350713
vt 1.44678465 -0.76258239
vt 1.44678465 0.80056676
vt 1.44678465 0.31359187
vt 1.45056628 -0.90703077
vt 1.45056628 -0.59733045
vt 1.45056628 0.47884381
vt 1.45056628 0.96581870
vt 1.45056628 0.65611838
vt 1.45056628 0.16914350
vn -0.57735027 -0.57735027 -0.57735027
vn -0.57735027 -0.57735027 0.57735027
vn -0.44721360 0.0000000e+0 -0.89442719
vn -0.44721360 0.0000000e+0 0.89442719
vn 0.57735027 -0.57735027 -0.57735027
vn 0.57735027 -0.57735027 0.57735027
vn 0.70710678 0.0000000e+0 -0.70710678
vn 0.70710678 0.0000000e+0 0.70710678
vn -0.73946147 -0.64079079 -0.20635869
vn -0.73946147 -0.64079079 0.20635869
vn 0.73946147 -0.64079079 0.20635869
vn 0.73946147 -0.64079079 -0.20635869
vn -0.61009596 -0.79232753 0.0000000e+0
vn 0.61009596 -0.79232753 0.0000000e+0
vn 0.0000000e+0 1.00000000 0.0000000e+0
vn 0.0000000e+0 1.00000000 0.0000000e+0
vn -0.51307547 -0.81702245 -0.26311190
vn -0.51307547 -0.81702245 0.26311190
vn 0.51307547 -0.81702245 0.26311190
vn 0.51307547 -0.81702245 -0.26311190
vn -0.79815818 -0.60244794 0.0000000e+0
vn 0.79815818 -0.60244794 0.0000000e+0
vn -0.73496276 0.67810748 0.0000000e+0
vn 0.73496276 0.67810748 0.0000000e+0
vn -0.51493638 0.47510191 0.71352554
vn 0.51493638 0.47510191 0.71352554
vn 0.51493638 0.47510191 -0.71352554
vn -0.51493638 0.47510191 -0.71352554
vn 0.0000000e+0 0.0000000e+0 1.00000000
vn 0.0000000e+0 0.0000000e+0 1.00000000
vn 0.0000000e+0 0.0000000e+0 1.00000000
vn 0.0000000e+0 0.0000000e+0 1.00000000
vn 0.0000000e+0 -0.31622777 0.94868330
vn 0.0000000e+0 -0.31622777 0.94868330
vn 0.0000000e+0 -0.31622777 0.94868330
vn 0.0000000e+0 -0.31622777 0.94868330
vn 0.0000000e+0 0.0000000e+0 -1.00000000
vn 0.0000000e+0 0.0000000e+0 -1.00000000
vn 0.0000000e+0 0.0000000e+0 -1.00000000
vn 0.0000000e+0 0.0000000e+0 -1.00000000
vn 0.0000000e+0 -0.31622777 -0.94868330
vn 0.0000000e+0 -0.31622777 -0.94868330
vn 0.0000000e+0 -0.31622777 -0.94868330
vn 0.0000000e+0 -0.31622777 -0.94868330
vn 0.0000000e+0 0.0000000e+0 1.00000000
vn 0.0000000e+0 0.0000000e+0 1.00000000
vn 0.0000000e+0 0.0000000e+0 1.00000000
vn 0.0000000e+0 0.0000000e+0 1.00000000
vn 0.0000000e+0 0.0000000e+0 -1.00000000
vn 0.0000000e+0 0.0000000e+0 -1.00000000
vn 0.0000000e+0 0.0000000e+0 -1.00000000
vn 0.0000000e+0 0.0000000e+0 -1.00000000
vn 0.0000000e+0 0.0000000e+0 1.00000000
vn 0.0000000e+0 0.0000000e+0 1.00000000
vn 0.0000000e+0 0.0000000e+0 1.00000000
vn 0.0000000e+0 0.0000000e+0 1.00000000
vn 0.0000000e+0 0.0000000e+0 -1.00000000
vn 0.0000000e+0 0.0000000e+0 -1.00000000
vn 0.0000000e+0 0.0000000e+0 -1.00000000
vn 0.0000000e+0 0.0000000e+0 -1.00000000
vn 1.00000000 0.0000000e+0 0.0000000e+0
vn 1.00000000 0.0000000e+0 0.0000000e+0
vn 1.00000000 -1.1129414e-16 0.0000000e+0
vn 1.00000000 -1.1129414e-16 0.0000000e+0
vn 1.00000000 0.0000000e+0 0.0000000e+0
vn 1.00000000 0.0000000e+0 0.0000000e+0
vn 1.00000000 0.0000000e+0 0.0000000e+0
vn 1.00000000 0.0000000e+0 0.0000000e+0
vn 0.71502299 -0.67104781 -0.19605346
vn 0.71502299 -0.67104781 0.19605346
vn 0.57443289 0.58320726 0.57436587
vn 0.57443289 0.58320726 -0.57436587
vn 0.58203375 -0.56803983 0.58186550
vn 0.58203375 -0.56803983 -0.58186550
vn 0.76361288 -0.33149510 -0.55408155
vn 0.76361288 -0.33149510 0.55408155
vn 0.50899766 -0.44192609 0.73866279
vn 0.69507367 -0.60957714 -0.38116704
vn 0.57443289 0.58320726 -0.57436587
vn 0.57443289 0.58320726 0.57436587
vn 0.69507367 -0.60957714 0.38116704
vn 0.50899766 -0.44192609 -0.73866279
vn 0.58203375 -0.56803983 -0.58186550
vn 0.58203375 -0.56803983 0.58186550
g Cube1_Cube1_auv
usemtl Cube1_auv
s 1
f 2/116/2 4/117/4 10/118/10 9/9/9 3/8/3 1/7/1
f 2/1/2 6/158/6 8/163/8 32/131/32 31/92/31 30/61/30 29/12/29 4/2/4
f 3/160/3 9/161/9 41/128/41 37/129/37
f 3/160/3 37/129/37 38/93/38 39/60/39 40/10/40 7/3/7 5/4/5 1/159/1
f 5/155/5 7/157/7 61/113/61 62/82/62 8/34/8 6/33/6 70/80/70 71/83/71 72/112/72 69/115/69
f 7/157/7 12/156/12 63/114/63 61/113/61
f 7/3/7 40/10/40 44/11/44 12/5/12
f 8/34/8 62/82/62 64/81/64 11/35/11
f 10/118/10 13/70/13 9/9/9
f 12/156/12 14/111/14 11/35/11 64/81/64 63/114/63
f 29/12/29 36/13/36 10/6/10 4/2/4
f 31/92/31 34/95/34 35/62/35 30/61/30
f 33/130/33 32/131/32 8/163/8 11/162/11
f 38/93/38 42/94/42 43/59/43 39/60/39
g Cube1_default
usemtl default
s 1
f 1//1 5//5 69//69 70//70 6//6 2//2
f 69//69 78//78 77//77 76//76
f 73//73 84//84 83//83 74//74
f 75//75 82//82 81//81 70//70
g Cube1_doors
usemtl doors
s 1
f 74/57/74 75/58/75 76/104/76 73/107/73
f 76/104/76 75/58/75 70/42/70 69/110/69
g Cube1_frame
usemtl frame
s 1
f 30/140/30 35/142/35 46/135/46 45/134/45
f 32/106/32 33/105/33 54/90/54 53/91/53
f 34/29/34 31/28/31 56/36/56 55/37/55
f 36/85/36 29/87/29 48/100/48 47/99/47
f 37/139/37 41/143/41 50/136/50 49/132/49
f 39/141/39 43/138/43 60/133/60 59/137/59
f 42/89/42 38/88/38 52/98/52 51/96/51
f 44/86/44 40/84/40 58/97/58 57/101/57
f 45/134/45 48/100/48 29/87/29 30/140/30
f 47/99/47 46/135/46 35/142/35 36/85/36
f 49/132/49 52/98/52 38/88/38 37/139/37
f 51/96/51 50/136/50 41/143/41 42/89/42
f 53/91/53 56/36/56 31/28/31 32/106/32
f 55/37/55 54/90/54 33/105/33 34/29/34
f 57/101/57 60/133/60 43/138/43 44/86/44
f 59/137/59 58/97/58 40/84/40 39/141/39
f 61/109/61 63/108/63 68/103/68 67/102/67
f 64/26/64 62/27/62 66/32/66 65/31/65
f 65/31/65 68/103/68 63/108/63 64/26/64
f 67/102/67 66/32/66 62/27/62 61/109/61
f 70/25/70 81/30/81 80/15/80 71/14/71
f 71/14/71 80/15/80 79/76/79 72/75/72
f 72/75/72 79/76/79 78/153/78 69/154/69
f 74/21/74 83/16/83 82/38/82 75/39/75
f 76/151/76 77/152/77 84/79/84 73/78/73
f 78/153/78 79/76/79 80/15/80 81/30/81 82/38/82 83/16/83 84/79/84 77/152/77
g Cube1_roof
usemtl roof
s 1
f 9/74/9 17/77/17 20/44/20 12/45/12 44/46/44 43/63/43 42/65/42 41/67/41
f 10/71/10 18/72/18 21/73/21 13/68/13
f 11/41/11 19/40/19 18/72/18 10/71/10 36/69/36 35/66/35 34/64/34 33/47/33
f 12/45/12 20/44/20 22/43/22 14/48/14
f 13/68/13 21/73/21 17/77/17 9/74/9
f 14/48/14 22/43/22 19/40/19 11/41/11
f 15/24/15 23/20/23 25/19/25 26/146/26 24/145/24 16/144/16
f 16/144/16 24/145/24 27/147/27 28/23/28 23/20/23 15/24/15
f 17/22/17 21/17/21 23/20/23 28/23/28
f 18/18/18 19/148/19 26/146/26 25/19/25
f 19/148/19 22/150/22 24/145/24 26/146/26
f 25/19/25 23/20/23 21/17/21 18/18/18
f 27/147/27 24/145/24 22/150/22 20/149/20
f 28/23/28 27/147/27 20/149/20 17/22/17
g Cube1_window
usemtl window
s 1
f 46/124/46 47/53/47 48/56/48 45/125/45
f 50/122/50 51/52/51 52/54/52 49/121/49
f 54/124/54 55/55/55 56/51/56 53/123/53
f 58/54/58 59/119/59 60/120/60 57/52/57
f 66/50/66 67/127/67 68/126/68 65/49/65
