# Exported from Wings 3D 1.5.4
mtllib shed.mtl
o Cube1
#136 vertices, 104 faces
v -4.50000000 0.0000000e+0 -3.00000000
v -4.50000000 0.0000000e+0 3.00000000
v -4.50000000 3.39732968 -3.00000000
v -4.50000000 3.39732968 3.00000000
v 4.50000000 0.0000000e+0 -3.00000000
v 4.50000000 0.0000000e+0 3.00000000
v 4.50000000 3.39732968 -3.00000000
v 4.50000000 3.39732968 3.00000000
v -4.50000000 5.81002240 -3.00000000
v -4.50000000 5.81002240 3.00000000
v 4.50000000 5.81002240 3.00000000
v 4.50000000 5.81002240 -3.00000000
v -4.50000000 7.14009900 0.0000000e+0
v 4.50000000 7.14009900 0.0000000e+0
v -4.50000000 7.32215566 0.0000000e+0
v 4.50000000 7.32215566 0.0000000e+0
v -4.68205666 5.81002240 -3.18205666
v -4.68205666 5.81002240 3.18205666
v 4.68205666 5.81002240 3.18205666
v 4.68205666 5.81002240 -3.18205666
v -4.68205666 7.14009900 0.0000000e+0
v 4.68205666 7.14009900 0.0000000e+0
v -4.68205666 7.32215566 0.0000000e+0
v 4.68205666 7.32215566 0.0000000e+0
v -4.68205666 5.99207906 3.18205666
v 4.68205666 5.99207906 3.18205666
v 4.68205666 5.99207906 -3.18205666
v -4.68205666 5.99207906 -3.18205666
v -4.50000000 5.81002240 1.00000000
v -4.50000000 5.81002240 -1.00000000
v -4.50000000 5.16248578 0.36145795
v -4.50000000 5.16248578 -0.36145795
v -4.50000000 4.01674169 0.36145795
v -4.50000000 4.01674169 -0.36145795
v -4.50000000 5.13436116 0.30520872
v -4.50000000 5.13436116 -0.30520872
v -4.50000000 4.04486630 -0.30520872
v -4.50000000 4.04486630 0.30520872
v -4.62342688 5.16248578 0.36145795
v -4.62342688 5.16248578 -0.36145795
v -4.62342688 4.01674169 0.36145795
v -4.62342688 4.01674169 -0.36145795
v -4.62342688 5.13436116 0.30520872
v -4.62342688 5.13436116 -0.30520872
v -4.62342688 4.04486630 -0.30520872
v -4.62342688 4.04486630 0.30520872
v -4.50000000 0.0000000e+0 -1.00000000
v -4.50000000 0.0000000e+0 1.00000000
v -4.50000000 0.0000000e+0 -0.54661498
v -4.50000000 0.0000000e+0 0.57149784
v -4.50000000 2.69042452 0.57149784
v -4.50000000 2.69042452 -0.54661498
v -4.50000000 0.0000000e+0 0.57149784
v -4.50000000 6.0429801e-2 0.45063824
v -4.50000000 6.0429801e-2 -0.42575538
v -4.50000000 0.0000000e+0 -0.54661498
v -4.50000000 2.69042452 -0.54661498
v -4.50000000 2.62999472 -0.42575538
v -4.50000000 2.62999472 0.45063824
v -4.50000000 2.69042452 0.57149784
v -4.50000000 6.0429801e-2 0.45063824
v -4.50000000 0.0000000e+0 0.57149784
v -4.50000000 2.69042452 0.57149784
v -4.50000000 2.62999472 0.45063824
v -4.50000000 2.62999472 -0.42575538
v -4.50000000 2.69042452 -0.54661498
v -4.50000000 0.0000000e+0 -0.54661498
v -4.50000000 6.0429801e-2 -0.42575538
v -4.50000000 6.0429801e-2 0.45063824
v -4.50000000 2.62999472 0.45063824
v -4.50000000 2.62999472 -0.42575538
v -4.50000000 6.0429801e-2 -0.42575538
v -4.50000000 0.0000000e+0 0.34787528
v -4.50000000 0.0000000e+0 0.12425271
v -4.50000000 0.0000000e+0 -9.9369853e-2
v -4.50000000 0.0000000e+0 -0.32299242
v -4.50000000 0.0000000e+0 -0.42606768
v -4.50000000 0.0000000e+0 0.45269775
v -4.69372990 2.62999472 -0.42575538
v -4.69372990 2.69042452 -0.54661498
v -4.69372990 -6.6899460e-17 -0.54661498
v -4.69372990 -6.6899460e-17 -0.54661498
v -4.69372990 -6.6899460e-17 -0.42606768
v -4.69372990 6.0429801e-2 -0.42575538
v -4.69372990 6.0429801e-2 -0.42575538
v -4.69372990 -1.6727612e-17 0.45269775
v -4.69372990 -1.6727612e-17 0.57149784
v -4.69372990 -1.6727612e-17 0.57149784
v -4.69372990 2.69042452 0.57149784
v -4.69372990 2.62999472 0.45063824
v -4.69372990 6.0429801e-2 0.45063824
v -4.69372990 6.0429801e-2 0.45063824
v -4.69372990 2.69042452 -0.54661498
v -4.69372990 2.62999472 -0.42575538
v -4.69372990 2.62999472 0.45063824
v -4.69372990 2.69042452 0.57149784
v -4.50000000 2.45949499 3.00000000
v 4.50000000 2.45949499 3.00000000
v -4.50000000 4.10370194 3.00000000
v 4.50000000 4.10370194 3.00000000
v 2.76883701 4.10370194 3.00000000
v 0.83116299 4.10370194 3.00000000
v -0.83116299 4.10370194 3.00000000
v -2.76883701 4.10370194 3.00000000
v 2.76883701 2.45949499 3.00000000
v 0.83116299 2.45949499 3.00000000
v -0.83116299 2.45949499 3.00000000
v -2.76883701 2.45949499 3.00000000
v -2.63116299 4.03486493 3.00000000
v -2.63116299 2.52833201 3.00000000
v -0.96883701 2.52833201 3.00000000
v -0.96883701 4.03486493 3.00000000
v 2.63116299 2.52833201 3.00000000
v 2.63116299 4.03486493 3.00000000
v 0.96883701 4.03486493 3.00000000
v 0.96883701 2.52833201 3.00000000
v -0.83116299 4.10370194 3.24998705
v -2.76883701 4.10370194 3.24998705
v -0.83116299 2.45949499 3.24998705
v -2.76883701 2.45949499 3.24998705
v -2.63116299 4.03486493 3.24998705
v -2.63116299 2.52833201 3.24998705
v -0.96883701 2.52833201 3.24998705
v -0.96883701 4.03486493 3.24998705
v 2.76883701 4.10370194 3.24998705
v 0.83116299 4.10370194 3.24998705
v 2.76883701 2.45949499 3.24998705
v 0.83116299 2.45949499 3.24998705
v 2.63116299 2.52833201 3.24998705
v 2.63116299 4.03486493 3.24998705
v 0.96883701 4.03486493 3.24998705
v 0.96883701 2.52833201 3.24998705
v -4.50000000 1.69866484 -3.00000000
v 4.50000000 1.69866484 -3.00000000
v -4.50000000 4.60367604 -3.00000000
v 4.50000000 4.60367604 -3.00000000
vt -1.35842262 0.48828256
vt -1.35827495 -0.96888961
vt -1.35826863 -0.62656373
vt -1.35826863 -2.3298818e-2
vt -1.35826863 0.57996609
vt -1.35826863 1.00838870
vt -1.35826863 1.43681131
vt -1.35824404 1.09430979
vt -1.35821403 0.23756883
vt -1.35811468 -9.5516984e-2
vt -0.90551242 1.62853986
vt -0.90551242 1.02255613
vt -0.90551242 0.43863143
vt -0.90551242 0.77169464
vt -0.90551242 -0.43483518
vt -0.74362152 -9.6033079e-2
vt -0.74360649 0.48823552
vt -0.42639996 0.66671439
vt -0.42639996 -0.96823805
vt -0.42639996 -0.36497314
vt -0.42639996 0.23829177
vt -0.42639996 1.09513700
vt -0.39562105 2.51442717
vt -0.39562073 -0.43422620
vt -0.27769467 -0.50357107
vt -0.27144397 0.89787273
vt -0.18074717 0.22194581
vt -0.17029503 -0.20445208
vt -0.16411718 -0.18647891
vt -0.16075971 0.22157883
vt -0.15296111 0.64701591
vt -0.14746526 0.62908165
vt -0.13860644 0.22136600
vt -5.5229216e-2 0.48834939
vt -5.5208228e-2 -9.5691844e-2
vt -2.1083982e-2 -0.50357130
vt -2.7601415e-3 0.44874258
vt 0.0000000e+0 0.69424074
vt 0.0000000e+0 0.69424074
vt 0.0000000e+0 0.75874774
vt 0.0000000e+0 0.82325473
vt 0.0000000e+0 0.88776172
vt 0.0000000e+0 0.88776172
vt 0.0000000e+0 0.95226872
vt 0.0000000e+0 0.95226872
vt 0.0000000e+0 0.98779431
vt 5.5511151e-17 0.75874774
vt 3.2959746e-16 0.0000000e+0
vt 5.1198754e-3 1.00142300
vt 5.1198754e-3 -1.4230000e-3
vt 5.1198754e-3 -1.4230000e-3
vt 5.1198754e-3 1.00142300
vt 9.9838476e-3 0.44650368
vt 1.4225116e-2 1.1914541e-2
vt 1.4225116e-2 0.98808546
vt 3.1914534e-2 0.99197882
vt 3.3464884e-2 1.00291166
vt 3.5525590e-2 0.97003151
vt 3.5525590e-2 0.97003151
vt 3.7798116e-2 0.74510686
vt 4.9990323e-2 0.69424074
vt 4.9990323e-2 2.2204460e-16
vt 4.9990323e-2 0.69424074
vt 4.9990323e-2 1.1102230e-16
vt 4.9990323e-2 0.0000000e+0
vt 5.2920813e-2 0.74438830
vt 7.3361977e-2 0.26784126
vt 8.1096509e-2 0.0000000e+0
vt 8.1177096e-2 0.67864736
vt 8.1177096e-2 1.5593387e-2
vt 8.1177096e-2 1.5593387e-2
vt 8.1177096e-2 0.69424074
vt 8.1177096e-2 0.0000000e+0
vt 8.7890779e-2 0.26686608
vt 8.9745145e-2 -2.9015019e-3
vt 9.0885132e-2 8.4635654e-3
vt 0.11155220 0.55158469
vt 0.12411518 0.54934277
vt 0.13116742 0.69424074
vt 0.13116742 0.0000000e+0
vt 0.13116742 0.67793243
vt 0.13143481 1.5634284e-2
vt 0.13153853 1.5576907e-2
vt 0.13207816 0.0000000e+0
vt 0.15990949 2.10090411
vt 0.16231279 0.69353060
vt 0.16273271 0.0000000e+0
vt 0.16275416 0.0000000e+0
vt 0.16275416 0.66305397
vt 0.16275416 0.67864757
vt 0.16275416 3.8940156e-5
vt 0.16275416 0.66305397
vt 0.21274448 1.1102230e-16
vt 0.21274448 0.66305397
vt 0.21274448 0.67864757
vt 0.21274448 0.66305397
vt 0.21274448 0.66305397
vt 0.21274448 0.69416016
vt 0.21274448 0.66305397
vt 0.21274448 0.0000000e+0
vt 0.23553067 -0.50357119
vt 0.26273480 0.66305397
vt 0.26273480 0.69416016
vt 0.26273480 0.66305397
vt 0.26273480 0.61807286
vt 0.26273480 0.0000000e+0
vt 0.26273480 0.43153067
vt 0.26273480 0.43153067
vt 0.26273480 2.7755576e-17
vt 0.26273480 0.42427336
vt 0.26273480 0.61807286
vt 0.27724943 0.62533017
vt 0.27724943 0.42427336
vt 0.28388130 1.09513700
vt 0.28388130 -0.96823805
vt 0.29458404 0.43153067
vt 0.29458404 0.58904361
vt 0.29458404 0.43153067
vt 0.29458404 0.61807286
vt 0.32643328 0.58904361
vt 0.32643328 0.43153067
vt 0.32724179 0.0000000e+0
vt 0.32724179 2.7755576e-17
vt 0.32724179 0.42427336
vt 0.32724179 0.42427336
vt 0.39174879 0.0000000e+0
vt 0.39174879 0.42427336
vt 0.39174879 2.7755576e-17
vt 0.39174879 0.42427336
vt 0.43476236 0.62533017
vt 0.43476236 0.42427336
vt 0.44489675 -0.96823805
vt 0.44489675 -1.2758976e-2
vt 0.44927699 0.61807286
vt 0.44927699 0.62641799
vt 0.44927699 0.65707332
vt 0.44927699 0.42427336
vt 0.44927699 0.43153067
vt 0.44927699 0.61081555
vt 0.44927699 0.62641799
vt 0.44927699 0.61081555
vt 0.45625578 0.0000000e+0
vt 0.45625578 0.0000000e+0
vt 0.45625578 0.42427336
vt 0.45625578 0.42427336
vt 0.46447441 0.97003151
vt 0.46447441 0.97003151
vt 0.48112622 0.42427336
vt 0.48112622 0.61081555
vt 0.49178137 1.7762795e-2
vt 0.49178137 0.40651057
vt 0.49214848 -0.50357047
vt 0.49926731 0.62641799
vt 0.49926731 0.65707332
vt 0.49926731 0.61081555
vt 0.49926731 0.62641799
vt 0.50000000 0.98779431
vt 0.50000000 0.95226872
vt 0.50000000 0.88776172
vt 0.50000000 0.95226872
vt 0.50000000 0.82325473
vt 0.50000000 0.88776172
vt 0.50000000 2.8622937e-16
vt 0.50000000 0.65331993
vt 0.50000000 0.75874774
vt 0.50000000 0.82325473
vt 0.50000000 3.5525590e-2
vt 0.50000000 0.10003258
vt 0.50000000 0.16453958
vt 0.50000000 0.22904657
vt 0.50000000 0.63555714
vt 0.50000000 0.69424074
vt 0.50000000 0.75874774
vt 0.50000000 0.96456266
vt 0.50000000 0.10003258
vt 0.50000000 0.16453958
vt 0.50000000 0.94896927
vt 0.50000000 0.24680936
vt 0.51065353 0.45827015
vt 0.51065353 0.86517043
vt 0.53118677 0.94896927
vt 0.53184924 0.65331993
vt 0.53184924 0.65331993
vt 0.53184924 0.94896927
vt 0.53513904 0.48827922
vt 0.53515258 -9.5600120e-2
vt 0.53552559 1.7762795e-2
vt 0.53552559 0.65331993
vt 0.53552559 1.7762795e-2
vt 0.53552559 0.22904657
vt 0.53552559 0.22904657
vt 0.53552559 0.61779434
vt 0.55015973 0.88996384
vt 0.56369848 0.65331993
vt 0.56369848 0.94896927
vt 0.56369848 0.66057724
vt 0.56369848 0.94171196
vt 0.57821310 0.94896927
vt 0.57821310 0.65331993
vt 0.57821310 0.94896927
vt 0.59272773 0.65331993
vt 0.59272773 0.66057724
vt 0.59272773 0.94171196
vt 0.59272773 0.94183926
vt 0.60003258 0.22904657
vt 0.60003258 0.61779434
vt 0.60003258 0.22904657
vt 0.60003258 0.61779434
vt 0.60361086 -0.43590841
vt 0.61006811 -0.43422526
vt 0.61006848 2.51442870
vt 0.61243138 -0.50357107
vt 0.63902194 1.56750124
vt 0.64271805 0.65331993
vt 0.64271805 0.65331993
vt 0.64271805 0.93445464
vt 0.64271805 0.94183926
vt 0.66453958 0.22904657
vt 0.66453958 0.22904657
vt 0.66453958 0.61779434
vt 0.66453958 0.61779434
vt 0.67456729 0.65331993
vt 0.67456729 0.93445464
vt 0.67456729 0.65331993
vt 0.67456729 0.93445464
vt 0.70641653 0.65331993
vt 0.70641653 0.93445464
vt 0.72904657 0.22904657
vt 0.72904657 0.22904657
vt 0.72904657 0.61779434
vt 0.72904657 0.61779434
vt 0.75733256 0.94896927
vt 0.76739034 0.86517043
vt 0.76739034 0.45827015
vt 0.78851933 0.96456266
vt 0.79355356 0.22904657
vt 0.79355356 0.61779434
vt 0.84198405 -1.2758976e-2
vt 0.84198405 -0.96823805
vt 0.92894882 0.22904657
vt 0.92894882 0.16453958
vt 0.92894882 0.10003258
vt 0.92894882 0.45979895
vt 0.92894882 0.88407231
vt 0.92894882 3.5525590e-2
vt 0.92894882 3.5525590e-2
vt 0.92894882 0.10003258
vt 0.92894882 0.16453958
vt 0.92894882 0.45979895
vt 0.93435620 0.21731928
vt 0.95548684 -0.18984670
vt 0.95601407 0.21702863
vt 0.96008726 0.62935953
vt 0.96113350 -0.20801963
vt 0.96447441 1.7762795e-2
vt 0.96447441 0.47756175
vt 0.96447441 0.86630952
vt 0.96447441 0.86630952
vt 0.96447441 0.47756175
vt 0.96447441 1.7762795e-2
vt 0.96601511 0.64772409
vt 0.97667288 0.21693613
vt 0.98577488 1.1914541e-2
vt 0.98577488 0.98808546
vt 0.99345581 3.5525590e-2
vt 0.99345581 0.45979895
vt 0.99416257 1.09513700
vt 0.99416257 -0.96823805
vt 0.99488012 -1.4230000e-3
vt 0.99488012 1.00142300
vt 0.99488012 1.00142300
vt 0.99488012 -1.4230000e-3
vt 1.00000000 0.88407231
vt 1.00000000 0.45979895
vt 1.00000000 3.5525590e-2
vt 1.00000000 0.0000000e+0
vt 1.22307343 -9.5626602e-2
vt 1.22325045 0.48795640
vt 1.22533139 -0.43483518
vt 1.22533139 0.16842973
vt 1.22533139 0.77169464
vt 1.22533139 1.62853986
vt 1.22533139 1.20011725
vt 1.70444384 -0.96823805
vt 1.70444384 0.48915327
vt 1.70444384 0.23829177
vt 1.70444384 -9.4771433e-2
vt 1.70444384 1.09513700
vt 1.83799709 -2.3298818e-2
vt 1.83799709 -0.62656373
vt 1.83799709 1.43681131
vt 1.83799709 0.57996609
vt 1.83799709 1.00838870
vt 1.83806316 -9.5795453e-2
vt 1.83806780 0.23740837
vt 1.83807241 1.09436319
vt 1.83807241 -0.96917847
vt 1.83809017 0.48832623
vn -0.57735027 -0.57735027 -0.57735027
vn -0.57735027 -0.57735027 0.57735027
vn -0.70710678 0.0000000e+0 -0.70710678
vn -0.70710678 0.0000000e+0 0.70710678
vn 0.57735027 -0.57735027 -0.57735027
vn 0.57735027 -0.57735027 0.57735027
vn 0.70710678 0.0000000e+0 -0.70710678
vn 0.70710678 0.0000000e+0 0.70710678
vn -0.73946147 -0.64079079 -0.20635869
vn -0.73946147 -0.64079079 0.20635869
vn 0.73946147 -0.64079079 0.20635869
vn 0.73946147 -0.64079079 -0.20635869
vn -0.61009596 -0.79232753 0.0000000e+0
vn 0.61009596 -0.79232753 0.0000000e+0
vn 0.0000000e+0 1.00000000 0.0000000e+0
vn 0.0000000e+0 1.00000000 0.0000000e+0
vn -0.51307547 -0.81702245 -0.26311190
vn -0.51307547 -0.81702245 0.26311190
vn 0.51307547 -0.81702245 0.26311190
vn 0.51307547 -0.81702245 -0.26311190
vn -0.79815818 -0.60244794 0.0000000e+0
vn 0.79815818 -0.60244794 0.0000000e+0
vn -0.73496276 0.67810748 0.0000000e+0
vn 0.73496276 0.67810748 0.0000000e+0
vn -0.51493638 0.47510191 0.71352554
vn 0.51493638 0.47510191 0.71352554
vn 0.51493638 0.47510191 -0.71352554
vn -0.51493638 0.47510191 -0.71352554
vn -1.00000000 0.0000000e+0 0.0000000e+0
vn -1.00000000 0.0000000e+0 0.0000000e+0
vn -0.81649658 0.40824829 0.40824829
vn -0.81649658 0.40824829 -0.40824829
vn -0.57735027 -0.57735027 0.57735027
vn -0.57735027 -0.57735027 -0.57735027
vn -0.57735027 -0.57735027 -0.57735027
vn -0.57735027 -0.57735027 0.57735027
vn -0.57735027 0.57735027 0.57735027
vn -0.57735027 0.57735027 -0.57735027
vn -0.81649658 0.40824829 0.40824829
vn -0.81649658 0.40824829 -0.40824829
vn -0.81649658 -0.40824829 0.40824829
vn -0.81649658 -0.40824829 -0.40824829
vn -0.81649658 -0.40824829 -0.40824829
vn -0.81649658 -0.40824829 0.40824829
vn -0.81649658 0.40824829 0.40824829
vn -0.81649658 0.40824829 -0.40824829
vn -0.70710678 -0.70710678 0.0000000e+0
vn -0.70710678 -0.70710678 0.0000000e+0
vn -0.70710678 -0.70710678 0.0000000e+0
vn -0.70710678 -0.70710678 0.0000000e+0
vn -1.00000000 0.0000000e+0 0.0000000e+0
vn -1.00000000 0.0000000e+0 0.0000000e+0
vn 8.6345018e-17 -1.00000000 0.0000000e+0
vn -0.70710678 -2.4084902e-2 -0.70669648
vn -0.70710678 -3.6542994e-3 0.70709734
vn 3.4532336e-16 -1.00000000 0.0000000e+0
vn 0.0000000e+0 0.22975292 -0.97324899
vn 0.0000000e+0 -0.97324899 -0.22975292
vn 0.0000000e+0 -0.97324899 0.22975292
vn 0.0000000e+0 0.22975292 0.97324899
vn 0.0000000e+0 4.3206654e-17 -1.00000000
vn 0.0000000e+0 -4.1265719e-17 1.00000000
vn 0.0000000e+0 0.85065081 0.52573111
vn 0.0000000e+0 0.52573111 -0.85065081
vn 0.0000000e+0 0.52573111 0.85065081
vn 0.0000000e+0 0.85065081 -0.52573111
vn 0.0000000e+0 4.1265719e-17 -1.00000000
vn 0.0000000e+0 -2.1603327e-17 1.00000000
vn -1.00000000 -3.6124671e-17 0.0000000e+0
vn -1.00000000 -3.6124671e-17 0.0000000e+0
vn -1.00000000 -3.6124671e-17 0.0000000e+0
vn -1.00000000 -3.6124671e-17 0.0000000e+0
vn -1.00000000 -3.6124671e-17 0.0000000e+0
vn -1.00000000 -3.6124671e-17 0.0000000e+0
vn -1.00000000 -3.6124671e-17 0.0000000e+0
vn -1.00000000 -3.6124671e-17 0.0000000e+0
vn -0.57635826 -0.57933685 0.57635056
vn -0.57090475 -0.59035045 -0.57057349
vn -0.50673185 0.45323475 0.73334923
vn -0.68915176 0.61639607 -0.38095372
vn -0.70710678 -2.1500122e-16 -0.70710678
vn -0.70710678 -0.70710678 0.0000000e+0
vn -0.57635826 -0.57933685 0.57635056
vn -0.70710678 -3.6542994e-3 0.70709734
vn -0.70710678 -2.5945635e-16 0.70710678
vn -0.57090475 -0.59035045 -0.57057349
vn -0.70710678 -0.70710678 0.0000000e+0
vn -0.70710678 -2.7339986e-16 0.70710678
vn -0.68915176 0.61639607 0.38095372
vn -0.50673185 0.45323475 -0.73334923
vn -0.70710678 -2.1366887e-16 -0.70710678
vn -0.70710678 -2.4084902e-2 -0.70669648
vn -0.90866085 9.5929879e-2 -0.40636549
vn -0.45696631 -0.86568941 -0.20436155
vn -0.45696631 -0.86568941 0.20436155
vn -0.90866085 9.5929879e-2 0.40636549
vn -0.44721360 0.0000000e+0 0.89442719
vn 0.44721360 0.0000000e+0 0.89442719
vn -0.44721360 0.0000000e+0 0.89442719
vn 0.44721360 0.0000000e+0 0.89442719
vn 0.40824829 0.40824829 0.81649658
vn -0.40824829 0.40824829 0.81649658
vn 0.40824829 0.40824829 0.81649658
vn -0.40824829 0.40824829 0.81649658
vn 0.40824829 -0.40824829 0.81649658
vn -0.40824829 -0.40824829 0.81649658
vn 0.40824829 -0.40824829 0.81649658
vn -0.40824829 -0.40824829 0.81649658
vn 0.57735027 -0.57735027 0.57735027
vn 0.57735027 0.57735027 0.57735027
vn -0.57735027 0.57735027 0.57735027
vn -0.57735027 -0.57735027 0.57735027
vn -0.57735027 0.57735027 0.57735027
vn -0.57735027 -0.57735027 0.57735027
vn 0.57735027 -0.57735027 0.57735027
vn 0.57735027 0.57735027 0.57735027
vn 0.40824829 0.40824829 0.81649658
vn -0.40824829 0.40824829 0.81649658
vn 0.40824829 -0.40824829 0.81649658
vn -0.40824829 -0.40824829 0.81649658
vn 0.40824829 -0.40824829 0.81649658
vn 0.40824829 0.40824829 0.81649658
vn -0.40824829 0.40824829 0.81649658
vn -0.40824829 -0.40824829 0.81649658
vn 0.40824829 0.40824829 0.81649658
vn -0.40824829 0.40824829 0.81649658
vn 0.40824829 -0.40824829 0.81649658
vn -0.40824829 -0.40824829 0.81649658
vn -0.40824829 0.40824829 0.81649658
vn -0.40824829 -0.40824829 0.81649658
vn 0.40824829 -0.40824829 0.81649658
vn 0.40824829 0.40824829 0.81649658
vn -0.70710678 0.0000000e+0 -0.70710678
vn 0.70710678 0.0000000e+0 -0.70710678
vn -0.70710678 0.0000000e+0 -0.70710678
vn 0.70710678 0.0000000e+0 -0.70710678
g Cube1_Doors
usemtl Doors
s 1
f 70/211/70 71/23/71 72/24/72 55/193/55 77/26/77 76/25/76 75/36/75 74/101/74 73/152/73 78/212/78 54/209/54 69/210/69
g Cube1_Frame
usemtl Frame
s 1
f 32/149/32 40/141/40 39/137/39 31/148/31
f 33/182/33 31/184/31 39/177/39 41/164/41
f 34/183/34 42/194/42 40/195/40 32/184/32
f 37/120/37 45/117/45 46/118/46 38/121/38
f 38/215/38 46/222/46 43/223/43 35/216/35
f 39/138/39 40/108/40 44/113/44 43/131/43
f 41/116/41 42/119/42 34/111/34 33/107/33
f 43/197/43 46/196/46 41/199/41 39/200/39
f 44/225/44 45/224/45 37/226/37 36/227/36
f 45/202/45 44/203/44 40/198/40 42/199/42
f 46/130/46 45/112/45 42/105/42 41/134/41
f 53/135/53 87/153/87 86/154/86 78/136/78
f 55/95/55 84/90/84 83/89/83 77/94/77
f 57/217/57 93/204/93 96/201/96 60/214/60
f 61/100/61 91/106/91 90/102/90 64/99/64
f 63/61/63 89/38/89 88/48/88 62/62/62
f 65/97/65 79/92/79 85/88/85 68/93/68
f 67/73/67 81/80/81 80/79/80 66/72/66
f 77/96/77 83/104/83 82/103/82 56/98/56
f 78/139/78 86/155/86 92/156/92 54/140/54
f 80/63/80 81/65/81 82/64/82 83/68/83 84/70/84 85/71/85 79/69/79
f 87/91/87 88/87/88 89/86/89 90/81/90 91/82/91 92/83/92 86/84/86
f 94/181/94 95/232/95 96/235/96 93/174/93
f 102/44/102 126/43/126 125/159/125 101/160/101
f 104/47/104 118/39/118 117/172/117 103/173/103
f 105/122/105 101/124/101 125/110/125 127/109/127
f 106/128/106 128/142/128 126/144/126 102/129/102
f 107/126/107 103/127/103 117/125/117 119/123/119
f 108/245/108 120/265/120 118/266/118 104/249/104
f 109/248/109 112/169/112 124/175/124 121/247/121
f 110/168/110 122/167/122 123/246/123 111/242/111
f 111/207/111 123/218/123 124/220/124 112/208/112
f 113/191/113 129/205/129 130/206/130 114/192/114
f 116/170/116 132/176/132 129/241/129 113/240/113
f 117/275/117 118/167/118 121/189/121 124/260/124
f 119/40/119 120/165/120 108/166/108 107/41/107
f 121/231/121 122/229/122 110/236/110 109/237/109
f 122/150/122 121/151/121 118/145/118 120/143/120
f 123/147/123 122/59/122 120/45/120 119/158/119
f 124/258/124 123/259/123 119/274/119 117/273/117
f 125/157/125 126/46/126 131/58/131 130/146/130
f 127/41/127 128/161/128 106/162/106 105/42/105
f 129/255/129 132/187/132 128/163/128 127/276/127
f 130/171/130 129/178/129 127/190/127 125/188/125
f 131/221/131 132/219/132 116/228/116 115/230/115
f 132/256/132 131/257/131 126/244/126 128/243/128
g Cube1_Roof
usemtl Roof
s 1
f 9/77/9 17/78/17 20/57/20 12/56/12
f 10/76/10 18/75/18 21/74/21 13/67/13
f 11/53/11 19/37/19 18/75/18 10/76/10
f 12/56/12 20/57/20 22/60/22 14/66/14
f 13/67/13 21/74/21 17/78/17 9/77/9
f 14/66/14 22/60/22 19/37/19 11/53/11
f 15/33/15 23/30/23 25/29/25 26/251/26 24/252/24 16/250/16
f 16/250/16 24/252/24 27/253/27 28/32/28 23/30/23 15/33/15
f 17/31/17 21/27/21 23/30/23 28/32/28
f 18/28/18 19/254/19 26/251/26 25/29/25
f 19/254/19 22/262/22 24/252/24 26/251/26
f 25/29/25 23/30/23 21/27/21 18/28/18
f 27/253/27 24/252/24 22/262/22 20/261/20
f 28/32/28 27/253/27 20/261/20 17/31/17
g Cube1_Walls
usemtl Walls
s 1
f 2/2/2 6/297/6 98/294/98 105/277/105 106/186/106 107/35/107 108/16/108 97/10/97
f 4/9/4 97/10/97 108/16/108 104/17/104 99/1/99
f 5/279/5 134/280/134 7/281/7 136/283/136 12/282/12 11/11/11 100/12/100 8/14/8 98/13/98 6/15/6
f 10/288/10 13/213/13 9/22/9 30/114/30 29/267/29
f 10/8/10 99/1/99 104/17/104 103/34/103 102/185/102 101/278/101 100/298/100 11/296/11
f 12/282/12 14/85/14 11/11/11
f 30/114/30 32/180/32 31/233/31 29/267/29
f 47/115/47 49/132/49 52/133/52 51/238/51 50/239/50 48/268/48 2/284/2 97/287/97 4/286/4 99/285/99 10/288/10 29/267/29 31/233/31 33/234/33 34/179/34 32/180/32 30/114/30 9/22/9 135/18/135 3/21/3 133/20/133 1/19/1
f 100/298/100 101/278/101 105/277/105 98/294/98 8/295/8
f 103/34/103 107/35/107 106/186/106 102/185/102
f 133/289/133 3/292/3 135/293/135 9/291/9 12/7/12 136/6/136 7/5/7 134/4/134 5/3/5 1/290/1
g Cube1_Windows
usemtl Windows
s 1
f 36/55/36 37/54/37 38/263/38 35/264/35
f 110/51/110 111/272/111 112/271/112 109/49/109
f 114/270/114 115/52/115 116/50/116 113/269/113
g Cube1_default
usemtl default
s 1
f 1//1 5//5 6//6 2//2 48//48 50//50 49//49 47//47
f 36//36 35//35 43//43 44//44
f 49//49 56//56 67//67
f 49//49 67//67 66//66 52//52
f 50//50 53//53 78//78 73//73 74//74 75//75 76//76 77//77 56//56 49//49
f 51//51 60//60 63//63
f 51//51 63//63 62//62 50//50
f 52//52 57//57 60//60 51//51
f 54//54 92//92 91//91 61//61
f 56//56 82//82 81//81 67//67
f 57//57 66//66 65//65 58//58
f 58//58 71//71 70//70 59//59
f 58//58 94//94 93//93 57//57
f 59//59 64//64 63//63 60//60
f 59//59 95//95 94//94 58//58
f 60//60 96//96 95//95 59//59
f 61//61 69//69 54//54
f 62//62 53//53 50//50
f 62//62 88//88 87//87 53//53
f 64//64 70//70 69//69 61//61
f 64//64 90//90 89//89 63//63
f 65//65 71//71 58//58
f 66//66 57//57 52//52
f 66//66 80//80 79//79 65//65
f 68//68 72//72 71//71 65//65
f 68//68 85//85 84//84 55//55
f 70//70 64//64 59//59
f 72//72 68//68 55//55
f 115//115 114//114 130//130 131//131
