# Exported from Wings 3D 1.5.4
mtllib silo.mtl
o Cube7
#44 vertices, 34 faces
v -1.25000000 0.0000000e+0 0.0000000e+0
v -1.25000000 0.0000000e+0 4.00000000
v -1.25000000 3.00000000 0.0000000e+0
v -1.25000000 3.00000000 4.00000000
v 1.25000000 0.0000000e+0 0.0000000e+0
v 1.25000000 0.0000000e+0 4.00000000
v 1.25000000 3.00000000 0.0000000e+0
v 1.25000000 3.00000000 4.00000000
v -1.25000000 3.47503358 0.0000000e+0
v 1.25000000 3.47503358 0.0000000e+0
v -1.50643405 3.00000000 4.25643405
v 1.50643405 3.00000000 4.25643405
v -1.50643405 3.47503358 4.25643405
v 1.50643405 3.47503358 4.25643405
v -1.50643405 3.47503358 0.0000000e+0
v -1.50643405 3.00000000 0.0000000e+0
v 1.50643405 3.00000000 0.0000000e+0
v 1.50643405 3.47503358 0.0000000e+0
v -1.25000000 2.00866427 4.00000000
v 1.25000000 2.00866427 4.00000000
v -0.45702350 2.00866427 4.00000000
v 0.45702350 2.00866427 4.00000000
v -0.45702350 0.0000000e+0 4.00000000
v 0.45702350 0.0000000e+0 4.00000000
v 0.37630983 4.0356835e-2 4.00000000
v 0.37630983 1.96830744 4.00000000
v -0.37630983 1.96830744 4.00000000
v -0.37630983 4.0356835e-2 4.00000000
v -0.45702350 2.00866427 4.00336307
v 0.45702350 2.00866427 4.00336307
v -0.45702350 0.0000000e+0 4.00336307
v 0.45702350 0.0000000e+0 4.00336307
v 0.37630983 4.0356835e-2 4.00336307
v 0.37630983 1.96830744 4.00336307
v -0.37630983 1.96830744 4.00336307
v -0.37630983 4.0356835e-2 4.00336307
v -0.45702350 2.00866427 4.06524355
v 0.45702350 2.00866427 4.06524355
v 0.37630983 1.96830744 4.06524355
v -0.37630983 1.96830744 4.06524355
v 0.37630983 4.0356835e-2 4.06524355
v 0.45702350 0.0000000e+0 4.06524355
v -0.45702350 0.0000000e+0 4.06524355
v -0.37630983 4.0356835e-2 4.06524355
vt -2.42395524 0.47864751
vt -2.42395524 0.56225759
vt -2.42395524 1.10330209
vt -2.42395524 1.18691217
vt -1.71576896 2.36513992
vt -1.71576896 0.64586767
vt -1.71576896 1.27052225
vt -1.71576896 -3.23194032
vt -1.37856605 2.36513992
vt -0.84200000 -0.22951267
vt -0.84200000 0.53734447
vt -0.11017045 1.7448588e-3
vt -0.10702671 0.89242908
vt -0.10702671 1.06287749
vt -1.5014731e-2 -0.18401111
vt -1.5014731e-2 0.89242908
vt -1.5014731e-2 1.06287749
vt -2.4099198e-3 2.2677363e-2
vt -2.4099198e-3 0.0000000e+0
vt -2.4099198e-3 1.00000000
vt 0.0000000e+0 1.00000000
vt 1.1449175e-16 0.0000000e+0
vt 3.0806781e-2 1.00000000
vt 3.0806781e-2 2.0091379e-2
vt 3.0806781e-2 0.0000000e+0
vt 3.0806781e-2 0.97990862
vt 7.0989538e-2 0.0000000e+0
vt 7.0989538e-2 1.00000000
vt 7.0989538e-2 0.0000000e+0
vt 0.10179632 1.00000000
vt 0.10179632 0.0000000e+0
vt 0.10179632 1.00000000
vt 0.14197908 2.0091379e-2
vt 0.14197908 5.5511151e-17
vt 0.14197908 0.97990862
vt 0.14197908 0.95981724
vt 0.17278586 0.0000000e+0
vt 0.17278586 0.0000000e+0
vt 0.17278586 0.95981724
vt 0.17278586 0.95981724
vt 0.18047619 -0.22951267
vt 0.18047619 0.53734447
vt 0.18047619 0.28394018
vt 0.20359264 0.0000000e+0
vt 0.20359264 2.0091379e-2
vt 0.20359264 2.0091379e-2
vt 0.20359264 5.0898160e-2
vt 0.20359264 5.0898160e-2
vt 0.20359264 8.1704940e-2
vt 0.20359264 0.95981724
vt 0.24377540 0.0000000e+0
vt 0.38317609 -0.22951267
vt 0.38317609 0.28394018
vt 0.57827928 5.0898160e-2
vt 0.57827928 8.1704940e-2
vt 0.61682391 0.28394018
vt 0.61682391 -0.22951267
vt 0.61846203 1.4918622e-16
vt 0.65864479 2.0091379e-2
vt 0.65864479 5.0898160e-2
vt 0.65864479 2.0091379e-2
vt 0.81952381 -0.22951267
vt 0.81952381 0.53734447
vt 0.81952381 0.28394018
vt 0.88201876 0.89242908
vt 0.88201876 1.06287749
vt 0.88201876 -0.18401111
vt 0.97403073 0.89242908
vt 0.97403073 1.06287749
vt 1.00240992 0.0000000e+0
vt 1.00240992 1.00000000
vt 1.00240992 2.2677363e-2
vt 1.11017045 1.7448588e-3
vt 1.84200000 0.53734447
vt 1.84200000 -0.22951267
vt 1.90885728 2.36513992
vt 2.24606020 2.36513992
vt 2.24606020 0.64586767
vt 2.24606020 1.27052225
vt 2.24606020 -3.23194032
vt 3.17312500 0.47864751
vt 3.17312500 1.18691217
vt 3.17312500 1.10330209
vt 3.17312500 0.56225759
vn -0.57735027 -0.57735027 -0.57735027
vn -0.57735027 -0.57735027 0.57735027
vn -0.30151134 -0.30151134 -0.90453403
vn -0.57735027 -0.57735027 0.57735027
vn 0.57735027 -0.57735027 -0.57735027
vn 0.57735027 -0.57735027 0.57735027
vn 0.30151134 -0.30151134 -0.90453403
vn 0.57735027 -0.57735027 0.57735027
vn 0.0000000e+0 0.44721360 -0.89442719
vn 0.0000000e+0 0.44721360 -0.89442719
vn -0.57735027 -0.57735027 0.57735027
vn 0.57735027 -0.57735027 0.57735027
vn -0.57735027 0.57735027 0.57735027
vn 0.57735027 0.57735027 0.57735027
vn -0.57735027 0.57735027 -0.57735027
vn -0.57735027 -0.57735027 -0.57735027
vn 0.57735027 -0.57735027 -0.57735027
vn 0.57735027 0.57735027 -0.57735027
vn -0.70710678 0.0000000e+0 0.70710678
vn 0.70710678 0.0000000e+0 0.70710678
vn -0.57735027 0.57735027 0.57735027
vn 0.57735027 0.57735027 0.57735027
vn -0.40824829 -0.81649658 0.40824829
vn 0.40824829 -0.81649658 0.40824829
vn -0.57735027 0.57735027 0.57735027
vn -0.57735027 -0.57735027 0.57735027
vn 0.57735027 -0.57735027 0.57735027
vn 0.57735027 0.57735027 0.57735027
vn -0.70710678 0.70710678 0.0000000e+0
vn 0.70710678 0.70710678 0.0000000e+0
vn -0.58689810 -0.71602617 0.37796447
vn 0.58689810 -0.71602617 0.37796447
vn -0.92495980 3.9902771e-2 0.37796447
vn -0.70710678 -0.70710678 0.0000000e+0
vn 0.70710678 -0.70710678 0.0000000e+0
vn 0.92495980 3.9902771e-2 0.37796447
vn -0.40824829 0.40824829 0.81649658
vn 0.40824829 0.40824829 0.81649658
vn -0.40824829 -0.40824829 0.81649658
vn 0.40824829 -0.40824829 0.81649658
vn -0.73334923 -0.45323475 0.50673185
vn 0.38095372 -0.61639607 0.68915176
vn -0.38095372 -0.61639607 0.68915176
vn 0.73334923 -0.45323475 0.50673185
g Cube7_Cube7_auv
usemtl Cube7_auv
s 1
f 2/41/2 19/43/19 4/42/4 3/11/3 1/10/1
f 2/41/2 23/52/23 21/53/21 22/56/22 24/57/24 6/62/6 20/64/20 8/63/8 4/42/4 19/43/19
f 3/65/3 7/16/7 5/15/5 1/67/1
f 3/65/3 9/66/9 10/17/10 7/16/7
f 5/75/5 7/74/7 8/63/8 20/64/20 6/62/6
g Cube7_Cylinder1_auv
usemtl Cylinder1_auv
s 1
f 3/65/3 16/68/16 15/69/15 9/66/9
f 9/9/9 15/5/15 13/8/13 14/80/14 18/77/18 10/76/10
f 10/17/10 18/14/18 17/13/17 7/16/7
f 11/6/11 12/78/12 14/79/14 13/7/13
f 12/2/12 17/84/17 18/82/18 14/4/14
f 13/83/13 15/3/15 16/1/16 11/81/11
g Cube7_Frame
usemtl Frame
s 1
f 29/21/29 31/22/31 43/25/43 37/23/37
f 33/38/33 41/44/41 39/50/39 34/40/34
f 34/49/34 39/48/39 40/54/40 35/55/35
f 35/39/35 40/36/40 44/34/44 36/37/36
f 37/46/37 38/59/38 30/60/30 29/47/29
f 37/32/37 43/31/43 44/33/44 40/35/40
f 38/28/38 42/29/42 32/31/32 30/30/30
f 39/26/39 41/24/41 42/27/42 38/28/38
f 40/51/40 39/58/39 38/61/38 37/45/37
g Cube7_default
usemtl default
s 1
f 1//1 5//5 6//6 24//24 23//23 2//2
f 4//4 8//8 7//7 17//17 12//12 11//11 16//16 3//3
f 21//21 23//23 31//31 29//29
f 22//22 30//30 32//32 24//24
f 24//24 32//32 31//31 23//23
f 25//25 28//28 36//36 33//33
f 26//26 34//34 35//35 27//27
f 27//27 35//35 36//36 28//28
f 29//29 30//30 22//22 21//21
f 32//32 42//42 41//41 33//33
f 33//33 34//34 26//26 25//25
f 36//36 44//44 43//43 31//31
g Cube7_door
usemtl door
s 1
f 26/71/26 27/20/27 28/19/28 25/70/25
f 31/12/31 32/73/32 33/72/33 36/18/36
o cone2
#19 vertices, 18 faces
v 1.00000000 6.14427792 -1.02833259
v 0.86602540 6.14427792 -0.52833259
v 0.50000000 6.14427792 -0.16230718
v 3.3306691e-16 6.14427792 -2.8332587e-2
v -0.50000000 6.14427792 -0.16230718
v -0.86602540 6.14427792 -0.52833259
v -1.00000000 6.14427792 -1.02833259
v -0.86602540 6.14427792 -1.52833259
v -0.50000000 6.00000000 -1.89435799
v 3.3306691e-16 6.00000000 -2.02833259
v 0.50000000 6.14427792 -1.89435799
v 0.86602540 6.14427792 -1.52833259
v 3.3306691e-16 6.69586290 -1.02833259
v 3.3306691e-16 6.14782478 -1.76033259
v -0.36600000 6.14782478 -1.66226318
v -0.50000000 6.14427792 -1.89435799
v 3.3306691e-16 6.14427792 -2.02833259
v 3.3306691e-16 6.29210269 -1.76033259
v -0.36600000 6.29210269 -1.66226318
vt -1.3433333e-2 0.42420556
vt 2.0273350e-2 0.64559336
vt 6.8069722e-2 0.21562476
vt 0.16015809 0.82046748
vt 0.24294384 7.5740017e-2
vt 0.36873889 0.90197053
vt 0.46433164 4.2033333e-2
vt 0.59012669 0.86826385
vt 0.64269364 0.91093871
vt 0.67291244 0.12353639
vt 0.76500081 0.72837910
vt 0.77471693 0.64626956
vt 0.78924533 0.59086899
vt 0.80193168 0.75693287
vt 0.81279718 0.29841051
vt 0.82202409 0.71827729
vt 0.82209598 0.69660086
vt 0.82785620 0.54951253
vt 0.84650386 0.51979830
vt 0.85786527 0.73292834
vt 0.85795056 0.76415298
vt 0.86679562 0.72185490
vt 0.86821820 0.75504477
vt 0.88090476 0.53168319
vt 0.89198021 0.64371895
vt 0.91681733 0.74959467
vt 0.93552046 0.54117318
vt 0.96480799 0.72460211
vt 0.97865628 0.57527822
vt 0.99505358 0.67963616
vt 1.00014444 0.62550820
vn 0.79267678 0.60964212 -2.8248509e-15
vn 0.68647823 0.60964212 0.39633839
vn 0.39633839 0.60964212 0.68647823
vn 0.0000000e+0 0.60964212 0.79267678
vn -0.39633839 0.60964212 0.68647823
vn -0.68647823 0.60964212 0.39633839
vn -0.79267678 0.60964212 1.7454364e-15
vn -0.68647823 0.60964212 -0.39633839
vn 0.75386924 0.65695014 -9.8828651e-3
vn -0.65781135 0.65695014 0.36837581
vn 0.39633839 0.60964212 -0.68647823
vn 0.68647823 0.60964212 -0.39633839
vn -4.5279789e-17 1.00000000 -1.9710026e-16
vn -0.63539848 0.39776990 -0.66185185
vn 0.21934530 0.39776990 -0.89087976
vn 0.97540242 -0.16581667 0.14524101
vn -0.77210277 -0.16581667 0.61348362
vn -0.43687874 0.60275542 -0.66769969
vn 4.4498244e-2 0.60275542 -0.79668426
g cone2_cone2_auv
usemtl cone2_auv
s 1
f 45/114/45 57/109/57 46/115/46
f 46/85/46 47/87/47 48/89/48 49/91/49 50/94/50 51/99/51 52/103/52 60/95/60 61/92/61 55/90/55 56/88/56 45/86/45
f 46/115/46 57/109/57 47/113/47
f 47/113/47 57/109/57 48/111/48
f 48/111/48 57/109/57 49/108/49
f 49/108/49 57/109/57 50/102/50
f 50/102/50 57/109/57 51/97/51
f 51/97/51 57/109/57 52/96/52
f 52/96/52 57/109/57 63/101/63 60/95/60
f 53/98/53 59/100/59 58/104/58 54/105/54
f 53/98/53 60/95/60 63/101/63 59/100/59
f 54/105/54 58/104/58 62/106/62 61/107/61
f 54/93/54 61/92/61 60/95/60 53/98/53
f 55/110/55 57/109/57 56/112/56
f 55/110/55 61/107/61 62/106/62 57/109/57
f 56/112/56 57/109/57 45/114/45
f 58/104/58 59/100/59 63/101/63 62/106/62
f 62/106/62 63/101/63 57/109/57
o Cylinder1
#78 vertices, 58 faces
v 1.00000000 6.00000000 -1.02833259
v 0.86602540 6.00000000 -0.52833259
v 0.50000000 6.00000000 -0.16230718
v 3.3306691e-16 6.00000000 -2.8332587e-2
v -0.50000000 6.00000000 -0.16230718
v -0.86602540 6.00000000 -0.52833259
v -1.00000000 6.00000000 -1.02833259
v -0.86602540 6.00000000 -1.52833259
v -0.50000000 6.00000000 -1.89435799
v 3.3306691e-16 6.00000000 -2.02833259
v 0.50000000 6.00000000 -1.89435799
v 0.86602540 6.00000000 -1.52833259
v 1.00000000 0.0000000e+0 -1.02833259
v 0.86602540 0.0000000e+0 -0.52833259
v 0.50000000 0.0000000e+0 -0.16230718
v 3.3306691e-16 0.0000000e+0 -2.8332587e-2
v -0.50000000 0.0000000e+0 -0.16230718
v -0.86602540 0.0000000e+0 -0.52833259
v -1.00000000 0.0000000e+0 -1.02833259
v -0.86602540 0.0000000e+0 -1.52833259
v -0.50000000 0.0000000e+0 -1.89435799
v 3.3306691e-16 0.0000000e+0 -2.02833259
v 0.50000000 0.0000000e+0 -1.89435799
v 0.86602540 0.0000000e+0 -1.52833259
v 3.3306691e-16 0.59400000 -2.02833259
v -0.50000000 0.59400000 -1.89435799
v -0.55881345 6.00000000 -2.11385277
v -5.8813449e-2 6.00000000 -2.24782737
v -5.8813449e-2 0.59400000 -2.24782737
v -0.55881345 0.59400000 -2.11385277
v -5.8813449e-2 6.18395434 -2.24782737
v -0.55881345 6.18395434 -2.11385277
v 0.10735788 6.18395434 -1.62766751
v -0.39264212 6.18395434 -1.49369292
v -0.39264212 6.00000000 -1.49369292
v 0.10735788 6.00000000 -1.62766751
v -5.8813449e-2 6.32823226 -2.24782737
v -0.55881345 6.32823226 -2.11385277
v -0.50000000 6.32823226 -1.89435799
v -0.39264212 6.32823226 -1.49369292
v 0.10735788 6.32823226 -1.62766751
v 3.3306691e-16 6.32823226 -2.02833259
v 0.86602540 6.14427792 -0.52833259
v 1.00000000 6.14427792 -1.02833259
v 0.86602540 6.14427792 -1.52833259
v 0.50000000 6.14427792 -1.89435799
v 3.3306691e-16 6.14427792 -2.02833259
v -0.50000000 6.14427792 -1.89435799
v -0.86602540 6.14427792 -1.52833259
v -1.00000000 6.14427792 -1.02833259
v -0.86602540 6.14427792 -0.52833259
v -0.50000000 6.14427792 -0.16230718
v 3.3306691e-16 6.14427792 -2.8332587e-2
v 0.50000000 6.14427792 -0.16230718
v 0.95892394 6.00000000 -1.02833259
v 0.83045249 6.00000000 -0.54887062
v 0.47946197 6.00000000 -0.19788009
v 3.3306691e-16 6.00000000 -6.9408647e-2
v -0.47946197 6.00000000 -0.19788009
v -0.83045249 6.00000000 -0.54887062
v -0.95892394 6.00000000 -1.02833259
v -0.83045249 6.00000000 -1.50779456
v 0.47946197 6.00000000 -1.85878508
v 0.83045249 6.00000000 -1.50779456
v 0.83045249 6.14427792 -0.54887062
v 0.95892394 6.14427792 -1.02833259
v 0.83045249 6.14427792 -1.50779456
v 0.47946197 6.14427792 -1.85878508
v -0.83045249 6.14427792 -1.50779456
v -0.95892394 6.14427792 -1.02833259
v -0.83045249 6.14427792 -0.54887062
v -0.47946197 6.14427792 -0.19788009
v 3.3306691e-16 6.14427792 -6.9408647e-2
v 0.47946197 6.14427792 -0.19788009
v -0.47194453 6.14427792 -1.86630252
v -0.47194453 6.00000000 -1.86630252
v -1.0269015e-2 6.00000000 -1.99000810
v -1.0269015e-2 6.14427792 -1.99000810
vt -4.7583333e-2 1.51746947
vt -4.7583333e-2 -0.55154365
vt 3.5750000e-2 1.51746947
vt 3.5750000e-2 -0.55154365
vt 0.12860000 1.51926126
vt 0.12860000 -0.54975186
vt 0.12860000 -0.34491956
vt 0.13091667 1.51746947
vt 0.13091667 -0.55154365
vt 0.20241667 -0.55154365
vt 0.20241667 1.51746947
vt 0.21425000 1.51746947
vt 0.21425000 -0.55154365
vt 0.28575000 1.51746947
vt 0.28575000 -0.55154365
vt 0.30710000 -0.54975186
vt 0.30710000 1.51926126
vt 0.36908333 1.51746947
vt 0.36908333 -0.55154365
vt 0.38091667 -0.55154365
vt 0.38091667 1.51746947
vt 0.45241667 1.51746947
vt 0.45241667 -0.55154365
vt 0.46425000 1.51746947
vt 0.46425000 -0.55154365
vt 0.53575000 1.51746947
vt 0.53575000 -0.55154365
vt 0.54758333 1.51746947
vt 0.54758333 -0.55154365
vt 0.61908333 1.51746947
vt 0.61908333 -0.55154365
vt 0.63091667 1.51746947
vt 0.63091667 -0.55154365
vt 0.69290000 1.51926126
vt 0.69290000 -0.54975186
vt 0.71425000 1.51746947
vt 0.71425000 -0.55154365
vt 0.78575000 1.51746947
vt 0.78575000 -0.55154365
vt 0.79758333 1.51746947
vt 0.79758333 -0.55154365
vt 0.86908333 -5.4602821e-2
vt 0.86908333 0.15022948
vt 0.87140000 -0.54975186
vt 0.87140000 -0.34491956
vt 0.87140000 1.51926126
vt 0.96425000 1.51746947
vt 0.96425000 -0.55154365
vt 1.04758333 -5.4602821e-2
vt 1.04758333 0.15022948
vn 0.69474659 0.71925460 -2.3955990e-16
vn 0.60166820 0.71925460 0.34737330
vn 0.34737330 0.71925460 0.60166820
vn 0.0000000e+0 0.71925460 0.69474659
vn -0.34737330 0.71925460 0.60166820
vn -0.60166820 0.71925460 0.34737330
vn -0.69474659 0.71925460 1.9963325e-16
vn -0.60166820 0.71925460 -0.34737330
vn -0.96592583 0.0000000e+0 -0.25881905
vn 0.70710678 0.0000000e+0 -0.70710678
vn 0.34737330 0.71925460 -0.60166820
vn 0.60166820 0.71925460 -0.34737330
vn 0.88807383 -0.45970084 -3.0622228e-16
vn 0.76909450 -0.45970084 0.44403692
vn 0.44403692 -0.45970084 0.76909450
vn 0.0000000e+0 -0.45970084 0.88807383
vn -0.44403692 -0.45970084 0.76909450
vn -0.76909450 -0.45970084 0.44403692
vn -0.88807383 -0.45970084 2.5518523e-16
vn -0.76909450 -0.45970084 -0.44403692
vn -0.44403692 -0.45970084 -0.76909450
vn 1.7862966e-16 -0.45970084 -0.88807383
vn 0.44403692 -0.45970084 -0.76909450
vn 0.76909450 -0.45970084 -0.44403692
vn 0.37228033 -0.38541295 -0.84431286
vn -0.74456065 -0.38541295 -0.54505623
vn -0.86602540 0.0000000e+0 -0.50000000
vn 0.50000000 0.0000000e+0 -0.86602540
vn 0.40824829 -0.57735027 -0.70710678
vn -0.70710678 -0.57735027 -0.40824829
vn 0.50000000 0.0000000e+0 -0.86602540
vn -0.86602540 0.0000000e+0 -0.50000000
vn 0.66346995 0.0000000e+0 0.74820293
vn -0.20048037 0.0000000e+0 0.97969772
vn -0.40824829 -0.57735027 0.70710678
vn 0.70710678 -0.57735027 0.40824829
vn 0.40824829 0.57735027 -0.70710678
vn -0.70710678 0.57735027 -0.40824829
vn -0.68301270 0.70710678 0.18301270
vn -0.40824829 0.57735027 0.70710678
vn 0.70710678 0.57735027 0.40824829
vn 0.68301270 0.70710678 -0.18301270
vn 0.0000000e+0 -1.00000000 -2.2204460e-16
vn 0.0000000e+0 -1.00000000 -2.2204460e-16
vn 0.0000000e+0 -1.00000000 -2.2204460e-16
vn 0.0000000e+0 -1.00000000 -2.2204460e-16
vn 0.70710678 0.0000000e+0 -0.70710678
vn -0.96592583 0.0000000e+0 -0.25881905
vn 0.0000000e+0 -1.00000000 -2.2204460e-16
vn 0.0000000e+0 -1.00000000 -2.2204460e-16
vn 0.0000000e+0 -1.00000000 -2.2204460e-16
vn 0.0000000e+0 -1.00000000 -2.2204460e-16
vn 0.0000000e+0 -1.00000000 -2.2204460e-16
vn 0.0000000e+0 -1.00000000 -2.2204460e-16
vn 0.69474659 0.71925460 -2.7948655e-16
vn 0.60166820 0.71925460 0.34737330
vn 0.34737330 0.71925460 0.60166820
vn -7.9853301e-17 0.71925460 0.69474659
vn -0.34737330 0.71925460 0.60166820
vn -0.60166820 0.71925460 0.34737330
vn -0.69474659 0.71925460 2.7948655e-16
vn -0.60166820 0.71925460 -0.34737330
vn 0.34737330 0.71925460 -0.60166820
vn 0.60166820 0.71925460 -0.34737330
vn 0.60166820 -0.71925460 0.34737330
vn 0.69474659 -0.71925460 -2.7948655e-16
vn 0.60166820 -0.71925460 -0.34737330
vn 0.34737330 -0.71925460 -0.60166820
vn -0.60166820 -0.71925460 -0.34737330
vn -0.69474659 -0.71925460 2.7948655e-16
vn -0.60166820 -0.71925460 0.34737330
vn -0.34737330 -0.71925460 0.60166820
vn -7.9853301e-17 -0.71925460 0.69474659
vn 0.34737330 -0.71925460 0.60166820
vn -0.81649658 -0.57735027 3.4613328e-15
vn -0.81649658 0.57735027 3.4613328e-15
vn 0.70710678 0.57735027 -0.40824829
vn 0.70710678 -0.57735027 -0.40824829
g Cylinder1_Cylinder1_auv
usemtl Cylinder1_auv
s 1
f 64/129/64 76/130/76 87/140/87 75/139/75
f 65/153/65 77/154/77 76/163/76 64/162/64
f 66/118/66 78/119/78 77/128/77 65/127/65
f 67/116/67 79/117/79 78/124/78 66/123/66
f 68/133/68 80/134/80 79/144/79 67/143/67
f 69/137/69 81/138/81 80/148/80 68/147/68
f 70/141/70 82/142/82 81/152/81 69/151/69
f 71/126/71 83/125/83 82/135/82 70/136/70
f 72/120/72 89/122/89 84/121/84 83/131/83 71/132/71
f 74/149/74 86/150/86 85/159/85 88/160/88 73/161/73
f 75/145/75 87/146/87 86/156/86 74/155/74
f 84/164/84 89/165/89 88/158/88 85/157/85
g Cylinder1_cone2_auv
usemtl cone2_auv
s 1
f 72//72 98//98 97//97 103//103 102//102 101//101 95//95 90//90 93//93 89//89
f 88//88 92//92 91//91 94//94 100//100 105//105 104//104 96//96 99//99 73//73
f 92//92 93//93 90//90 95//95 101//101 100//100 94//94 91//91
f 101//101 102//102 103//103 104//104 105//105 100//100
f 118//118 127//127 130//130 129//129
f 126//126 140//140 141//141 131//131
f 128//128 137//137 120//120 119//119
f 129//129 128//128 119//119 118//118
f 131//131 130//130 127//127 126//126
f 132//132 138//138 139//139 125//125
f 133//133 132//132 125//125 124//124
f 134//134 133//133 124//124 123//123
f 135//135 134//134 123//123 122//122
f 136//136 135//135 122//122 121//121
f 137//137 136//136 121//121 120//120
g Cylinder1_default
usemtl default
s 1
f 64//64 118//118 119//119 65//65
f 65//65 119//119 120//120 66//66
f 66//66 120//120 121//121 67//67
f 67//67 121//121 122//122 68//68
f 68//68 122//122 123//123 69//69
f 69//69 123//123 124//124 70//70
f 70//70 124//124 125//125 71//71
f 71//71 125//125 139//139 72//72
f 72//72 111//111 110//110 73//73
f 72//72 139//139 138//138 111//111
f 73//73 99//99 98//98 72//72
f 73//73 140//140 126//126 74//74
f 74//74 126//126 127//127 75//75
f 75//75 127//127 118//118 64//64
f 77//77 78//78 79//79 80//80 81//81 82//82 83//83 84//84 85//85 86//86 87//87 76//76
f 89//89 93//93 92//92 88//88
f 96//96 104//104 103//103 97//97
f 97//97 98//98 99//99 96//96
f 106//106 128//128 129//129 107//107
f 107//107 108//108 109//109 110//110 111//111 112//112 113//113 114//114 115//115 116//116 117//117 106//106
f 107//107 129//129 130//130 108//108
f 108//108 130//130 131//131 109//109
f 109//109 131//131 141//141 110//110
f 110//110 141//141 140//140 73//73
f 111//111 138//138 132//132 112//112
f 112//112 132//132 133//133 113//113
f 113//113 133//133 134//134 114//114
f 114//114 134//134 135//135 115//115
f 115//115 135//135 136//136 116//116
f 116//116 136//136 137//137 117//117
f 117//117 137//137 128//128 106//106
