# Blender v2.77 (sub 0) OBJ File: 'treestump.blend'
# www.blender.org
mtllib treestump.mtl
o Cylinder.001
v 0.000000 1.566742 -0.403501
v 0.000000 -0.008033 -0.648289
v 0.344572 1.566742 -0.201750
v 0.553611 -0.008033 -0.324144
v 0.344572 1.566742 0.201751
v 0.553611 -0.008033 0.324144
v -0.000000 1.566742 0.403501
v -0.000000 -0.008033 0.648289
v -0.344572 1.566742 0.201750
v -0.553611 -0.008033 0.324144
v -0.344572 1.566742 -0.201750
v -0.553611 -0.008033 -0.324144
vn -0.5008 -0.1330 0.8553
vn -0.9913 -0.1316 -0.0000
vn -0.5008 -0.1330 -0.8553
vn 0.5008 -0.1330 -0.8553
vn 0.0000 1.0000 0.0000
vn 0.9913 -0.1316 0.0000
vn 0.5008 -0.1330 0.8553
vn 0.0000 -1.0000 0.0000
usemtl Trunk.001
s off
f 1//1 2//1 4//1 3//1
f 3//2 4//2 6//2 5//2
f 5//3 6//3 8//3 7//3
f 7//4 8//4 10//4 9//4
f 4//5 2//5 12//5 10//5 8//5 6//5
f 9//6 10//6 12//6 11//6
f 11//7 12//7 2//7 1//7
usemtl Chopped
f 1//8 3//8 5//8 7//8 9//8 11//8
