# Blender v2.78 (sub 0) OBJ File: 'tree.blend'
# www.blender.org
mtllib tree.mtl
o Cylinder.001
v 0.000000 1.394583 -0.281544
v 0.000000 0.092277 -0.452346
v 0.200980 1.394583 -0.140772
v 0.322907 0.092277 -0.226173
v 0.200980 1.394583 0.140772
v 0.322907 0.092277 0.226173
v -0.000000 1.394583 0.281544
v -0.000000 0.092277 0.452346
v -0.200980 1.394583 0.140772
v -0.322907 0.092277 0.226173
v -0.200980 1.394583 -0.140772
v -0.322907 0.092277 -0.226173
vt -0.2008 -0.2008
vt 1.2008 -0.2008
vt 1.2008 1.2008
vt -0.2008 1.2008
vt -0.2008 -0.2008
vt 1.2008 -0.2008
vt 1.2008 1.2008
vt -0.2008 1.2008
vt -0.2008 -0.2008
vt 1.2008 -0.2008
vt 1.2008 1.2008
vt -0.2008 1.2008
vt -0.2008 -0.2008
vt 1.2008 -0.2008
vt 1.2008 1.2008
vt -0.2008 1.2008
vt 0.5000 1.2008
vt 1.1069 0.8504
vt 1.1069 0.1496
vt 0.5000 -0.2008
vt -0.1069 0.1496
vt -0.1069 0.8504
vt -0.2008 -0.2008
vt 1.2008 -0.2008
vt 1.2008 1.2008
vt -0.2008 1.2008
vt -0.2008 -0.2008
vt 1.2008 -0.2008
vt 1.2008 1.2008
vt -0.2008 1.2008
vt 0.5000 1.2008
vt 1.1069 0.8504
vt 1.1069 0.1496
vt 0.5000 -0.2008
vt -0.1069 0.1496
vt -0.1069 0.8504
vn -0.5704 -0.1068 0.8144
vn -0.9956 -0.0932 -0.0000
vn -0.5704 -0.1068 -0.8144
vn 0.5704 -0.1068 -0.8144
vn 0.0000 1.0000 -0.0000
vn 0.9956 -0.0932 0.0000
vn 0.5704 -0.1068 0.8144
vn 0.0000 -1.0000 -0.0000
usemtl Trunk.001
s off
f 1/1/1 2/2/1 4/3/1 3/4/1
f 3/5/2 4/6/2 6/7/2 5/8/2
f 5/9/3 6/10/3 8/11/3 7/12/3
f 7/13/4 8/14/4 10/15/4 9/16/4
f 4/17/5 2/18/5 12/19/5 10/20/5 8/21/5 6/22/5
f 9/23/6 10/24/6 12/25/6 11/26/6
f 11/27/7 12/28/7 2/29/7 1/30/7
f 1/31/8 3/32/8 5/33/8 7/34/8 9/35/8 11/36/8
o Cylinder
v 0.000000 1.408730 -0.898048
v -0.000000 4.529517 -0.073397
v 0.777732 1.408730 -0.449024
v 0.063564 4.529517 -0.036699
v 0.777732 1.408730 0.449024
v 0.063564 4.529517 0.036699
v -0.000000 1.408730 0.898048
v -0.000000 4.529517 0.073397
v -0.777732 1.408730 0.449024
v -0.063564 4.529517 0.036699
v -0.777732 1.408730 -0.449024
v -0.063564 4.529517 -0.036699
v -0.000000 1.926368 -0.791907
v -0.000000 2.446499 -0.685255
v -0.000000 2.966630 -0.578603
v -0.000000 3.486761 -0.471950
v -0.000000 4.006892 -0.365298
v 0.316358 4.006892 -0.182649
v 0.408721 3.486761 -0.235975
v 0.501085 2.966630 -0.289301
v 0.593448 2.446499 -0.342627
v 0.685812 1.926368 -0.395954
v 0.316358 4.006892 0.182649
v 0.408721 3.486761 0.235975
v 0.501085 2.966630 0.289301
v 0.593448 2.446499 0.342627
v 0.685812 1.926368 0.395954
v -0.000000 4.006892 0.365298
v -0.000000 3.486761 0.471950
v -0.000000 2.966630 0.578603
v -0.000000 2.446499 0.685255
v -0.000000 1.926368 0.791907
v -0.316358 4.006892 0.182649
v -0.408721 3.486761 0.235975
v -0.501085 2.966630 0.289301
v -0.593448 2.446499 0.342627
v -0.685812 1.926368 0.395953
v -0.316358 4.006892 -0.182649
v -0.408721 3.486761 -0.235975
v -0.501085 2.966630 -0.289301
v -0.593448 2.446499 -0.342627
v -0.685812 1.926368 -0.395953
v -0.000000 4.006893 -0.552114
v 0.478145 3.899001 -0.276057
v 0.478145 3.899001 0.276057
v -0.000000 4.006892 0.552114
v -0.478145 3.899001 0.276057
v -0.478145 3.899001 -0.276057
v 0.000000 3.486761 -0.804966
v 0.697121 3.378870 -0.402483
v 0.697121 3.378870 0.402483
v -0.000000 3.486761 0.804966
v -0.697121 3.378870 0.402483
v -0.697121 3.378870 -0.402483
v 0.000000 2.966630 -0.905804
v 0.784449 2.858739 -0.452902
v 0.784449 2.858739 0.452902
v -0.000000 2.966630 0.905804
v -0.784449 2.858739 0.452902
v -0.784449 2.858739 -0.452902
v 0.000000 2.446499 -1.147349
v 0.993634 2.338608 -0.573675
v 0.993634 2.338608 0.573675
v -0.000000 2.446499 1.147349
v -0.993634 2.338608 0.573674
v -0.993634 2.338608 -0.573674
v 0.000000 1.926368 -1.349573
v 1.168765 1.818477 -0.674787
v 1.168765 1.818477 0.674787
v -0.000000 1.926368 1.349573
v -1.168765 1.818477 0.674786
v -1.168765 1.818477 -0.674787
v 1.348012 1.300839 -0.778275
v 1.348012 1.300839 0.778275
v -0.000000 1.408730 1.556551
v -1.348012 1.300839 0.778275
v -1.348012 1.300839 -0.778275
v 0.000000 1.408730 -1.556551
vt 0.9945 -0.4660
vt 1.4660 0.9945
vt 0.0055 1.4660
vt -0.4660 0.0055
vt 0.9945 -0.4660
vt 1.4660 0.9945
vt 0.0055 1.4660
vt -0.4660 0.0055
vt 0.9945 -0.4660
vt 1.4660 0.9945
vt 0.0055 1.4660
vt -0.4660 0.0055
vt 0.9945 -0.4660
vt 1.4660 0.9945
vt 0.0055 1.4660
vt -0.4660 0.0055
vt -0.2303 0.7357
vt 0.3390 1.2503
vt 1.0693 1.0146
vt 1.2303 0.2643
vt 0.6610 -0.2503
vt -0.0693 -0.0146
vt 0.9945 -0.4660
vt 1.4660 0.9945
vt 0.0055 1.4660
vt -0.4660 0.0055
vt 0.9945 -0.4660
vt 1.4660 0.9945
vt 0.0055 1.4660
vt -0.4660 0.0055
vt -0.2303 0.7357
vt 0.3390 1.2503
vt 1.0693 1.0146
vt 1.2303 0.2643
vt 0.6610 -0.2503
vt -0.0693 -0.0146
vt 0.9945 -0.4660
vt 1.4660 0.9945
vt 0.0055 1.4660
vt -0.4660 0.0055
vt 0.9945 -0.4660
vt 1.4660 0.9945
vt 0.0055 1.4660
vt -0.4660 0.0055
vt 0.9945 -0.4660
vt 1.4660 0.9945
vt 0.0055 1.4660
vt -0.4660 0.0055
vt 0.9945 -0.4660
vt 1.4660 0.9945
vt 0.0055 1.4660
vt -0.4660 0.0055
vt 0.9945 -0.4660
vt 1.4660 0.9945
vt 0.0055 1.4660
vt -0.4660 0.0055
vt 0.9945 -0.4660
vt 1.4660 0.9945
vt 0.0055 1.4660
vt -0.4660 0.0055
vt 0.9945 -0.4660
vt 1.4660 0.9945
vt 0.0055 1.4660
vt -0.4660 0.0055
vt 0.9945 -0.4660
vt 1.4660 0.9945
vt 0.0055 1.4660
vt -0.4660 0.0055
vt 0.9945 -0.4660
vt 1.4660 0.9945
vt 0.0055 1.4660
vt -0.4660 0.0055
vt 0.9945 -0.4660
vt 1.4660 0.9945
vt 0.0055 1.4660
vt -0.4660 0.0055
vt 0.9945 -0.4660
vt 1.4660 0.9945
vt 0.0055 1.4660
vt -0.4660 0.0055
vt 0.9945 -0.4660
vt 1.4660 0.9945
vt 0.0055 1.4660
vt -0.4660 0.0055
vt 0.9945 -0.4660
vt 1.4660 0.9945
vt 0.0055 1.4660
vt -0.4660 0.0055
vt 0.9945 -0.4660
vt 1.4660 0.9945
vt 0.0055 1.4660
vt -0.4660 0.0055
vt 0.9945 -0.4660
vt 1.4660 0.9945
vt 0.0055 1.4660
vt -0.4660 0.0055
vt 0.9945 -0.4660
vt 1.4660 0.9945
vt 0.0055 1.4660
vt -0.4660 0.0055
vt 0.9945 -0.4660
vt 1.4660 0.9945
vt 0.0055 1.4660
vt -0.4660 0.0055
vt 0.9945 -0.4660
vt 1.4660 0.9945
vt 0.0055 1.4660
vt -0.4660 0.0055
vt 0.9945 -0.4660
vt 1.4660 0.9945
vt 0.0055 1.4660
vt -0.4660 0.0055
vt 0.9945 -0.4660
vt 1.4660 0.9945
vt 0.0055 1.4660
vt -0.4660 0.0055
vt 0.9945 -0.4660
vt 1.4660 0.9945
vt 0.0055 1.4660
vt -0.4660 0.0055
vt 0.9945 -0.4660
vt 1.4660 0.9945
vt 0.0055 1.4660
vt -0.4660 0.0055
vt 0.9945 -0.4660
vt 1.4660 0.9945
vt 0.0055 1.4660
vt -0.4660 0.0055
vt 0.9945 -0.4660
vt 1.4660 0.9945
vt 0.0055 1.4660
vt -0.4660 0.0055
vt 0.9945 -0.4660
vt 1.4660 0.9945
vt 0.0055 1.4660
vt -0.4660 0.0055
vt 0.9945 -0.4660
vt 1.4660 0.9945
vt 0.0055 1.4660
vt -0.4660 0.0055
vt 0.9945 -0.4660
vt 1.4660 0.9945
vt 0.0055 1.4660
vt -0.4660 0.0055
vt 0.9945 -0.4660
vt 1.4660 0.9945
vt 0.0055 1.4660
vt -0.4660 0.0055
vt 0.9945 -0.4660
vt 1.4660 0.9945
vt 0.0055 1.4660
vt -0.4660 0.0055
vt 0.9945 -0.4660
vt 1.4660 0.9945
vt 0.0055 1.4660
vt -0.4660 0.0055
vt 0.9945 -0.4660
vt 1.4660 0.9945
vt 0.0055 1.4660
vt -0.4660 0.0055
vt 0.9945 -0.4660
vt 1.4660 0.9945
vt 0.0055 1.4660
vt -0.4660 0.0055
vt 0.9945 -0.4660
vt 1.4660 0.9945
vt 0.0055 1.4660
vt -0.4660 0.0055
vt 0.9945 -0.4660
vt 1.4660 0.9945
vt 0.0055 1.4660
vt -0.4660 0.0055
vt 0.9945 -0.4660
vt 1.4660 0.9945
vt 0.0055 1.4660
vt -0.4660 0.0055
vt 0.9945 -0.4660
vt 1.4660 0.9945
vt 0.0055 1.4660
vt -0.4660 0.0055
vt 0.9945 -0.4660
vt 1.4660 0.9945
vt 0.0055 1.4660
vt -0.4660 0.0055
vt 0.9945 -0.4660
vt 1.4660 0.9945
vt 0.0055 1.4660
vt -0.4660 0.0055
vt 0.9945 -0.4660
vt 1.4660 0.9945
vt 0.0055 1.4660
vt -0.4660 0.0055
vt 0.9945 -0.4660
vt 1.4660 0.9945
vt 0.0055 1.4660
vt -0.4660 0.0055
vt 0.9945 -0.4660
vt 1.4660 0.9945
vt 0.0055 1.4660
vt -0.4660 0.0055
vt 0.9945 -0.4660
vt 1.4660 0.9945
vt 0.0055 1.4660
vt -0.4660 0.0055
vt 0.9945 -0.4660
vt 1.4660 0.9945
vt 0.0055 1.4660
vt -0.4660 0.0055
vt 0.9945 -0.4660
vt 1.4660 0.9945
vt 0.0055 1.4660
vt -0.4660 0.0055
vt 0.9945 -0.4660
vt 1.4660 0.9945
vt 0.0055 1.4660
vt -0.4660 0.0055
vt 0.9945 -0.4660
vt 1.4660 0.9945
vt 0.0055 1.4660
vt -0.4660 0.0055
vt 0.9945 -0.4660
vt 1.4660 0.9945
vt 0.0055 1.4660
vt -0.4660 0.0055
vt 0.9945 -0.4660
vt 1.4660 0.9945
vt 0.0055 1.4660
vt -0.4660 0.0055
vt 0.9945 -0.4660
vt 1.4660 0.9945
vt 0.0055 1.4660
vt -0.4660 0.0055
vt 0.9945 -0.4660
vt 1.4660 0.9945
vt 0.0055 1.4660
vt -0.4660 0.0055
vt 0.9945 -0.4660
vt 1.4660 0.9945
vt 0.0055 1.4660
vt -0.4660 0.0055
vt 0.9945 -0.4660
vt 1.4660 0.9945
vt 0.0055 1.4660
vt -0.4660 0.0055
vt 0.9945 -0.4660
vt 1.4660 0.9945
vt 0.0055 1.4660
vt -0.4660 0.0055
vt 0.9945 -0.4660
vt 1.4660 0.9945
vt 0.0055 1.4660
vt -0.4660 0.0055
vt 0.9945 -0.4660
vt 1.4660 0.9945
vt 0.0055 1.4660
vt -0.4660 0.0055
vt 0.9945 -0.4660
vt 1.4660 0.9945
vt 0.0055 1.4660
vt -0.4660 0.0055
vt 0.9945 -0.4660
vt 1.4660 0.9945
vt 0.0055 1.4660
vt -0.4660 0.0055
vt 0.9945 -0.4660
vt 1.4660 0.9945
vt 0.0055 1.4660
vt -0.4660 0.0055
vt 0.9945 -0.4660
vt 1.4660 0.9945
vt 0.0055 1.4660
vt -0.4660 0.0055
vt 0.9945 -0.4660
vt 1.4660 0.9945
vt 0.0055 1.4660
vt -0.4660 0.0055
vt 0.9945 -0.4660
vt 1.4660 0.9945
vt 0.0055 1.4660
vt -0.4660 0.0055
vt 0.9945 -0.4660
vt 1.4660 0.9945
vt 0.0055 1.4660
vt -0.4660 0.0055
vt 0.9945 -0.4660
vt 1.4660 0.9945
vt 0.0055 1.4660
vt -0.4660 0.0055
vt 0.9945 -0.4660
vt 1.4660 0.9945
vt 0.0055 1.4660
vt -0.4660 0.0055
vt 0.9945 -0.4660
vt 1.4660 0.9945
vt 0.0055 1.4660
vt -0.4660 0.0055
vt 0.9945 -0.4660
vt 1.4660 0.9945
vt 0.0055 1.4660
vt -0.4660 0.0055
vn 0.4907 0.5809 -0.6495
vn 0.8356 0.5494 0.0000
vn 0.4907 0.5809 0.6495
vn -0.4907 0.5809 0.6495
vn 0.0000 1.0000 0.0000
vn -0.8356 0.5494 0.0000
vn -0.4907 0.5809 -0.6495
vn 0.0000 -1.0000 -0.0000
vn -0.3566 0.7565 -0.5482
vn -0.3854 0.7074 -0.5925
vn -0.4144 0.6506 -0.6364
vn -0.4551 0.5471 -0.7025
vn -0.4602 0.5520 -0.6953
vn -0.6867 0.7269 0.0000
vn -0.7374 0.6755 0.0000
vn -0.7869 0.6171 0.0000
vn -0.8581 0.5134 0.0000
vn -0.8551 0.5184 0.0000
vn -0.3566 0.7565 0.5482
vn -0.3854 0.7074 0.5925
vn -0.4144 0.6506 0.6364
vn -0.4551 0.5471 0.7025
vn -0.4602 0.5520 0.6953
vn 0.3566 0.7565 0.5482
vn 0.3854 0.7074 0.5925
vn 0.4144 0.6506 0.6364
vn 0.4551 0.5471 0.7025
vn 0.4602 0.5520 0.6953
vn 0.6867 0.7269 0.0000
vn 0.7374 0.6755 0.0000
vn 0.7869 0.6171 0.0000
vn 0.8581 0.5134 0.0000
vn 0.8551 0.5184 0.0000
vn 0.3566 0.7565 -0.5482
vn 0.3854 0.7074 -0.5925
vn 0.4144 0.6506 -0.6364
vn 0.4551 0.5471 -0.7025
vn 0.4602 0.5520 -0.6953
vn 0.2532 -0.9428 0.2168
vn 0.5548 -0.8320 0.0000
vn 0.2532 -0.9428 -0.2168
vn -0.2532 -0.9428 -0.2168
vn -0.5548 -0.8320 0.0000
vn -0.2532 -0.9428 0.2168
vn -0.1633 -0.9796 0.1173
vn -0.3504 -0.9366 0.0000
vn -0.1633 -0.9796 -0.1173
vn 0.1633 -0.9796 -0.1173
vn 0.3504 -0.9366 0.0000
vn 0.1633 -0.9796 0.1173
vn -0.1549 -0.9799 0.1259
vn -0.3558 -0.9346 0.0000
vn -0.1549 -0.9799 -0.1259
vn 0.1549 -0.9799 -0.1259
vn 0.3558 -0.9346 0.0000
vn 0.1549 -0.9799 0.1259
vn -0.1171 -0.9894 0.0864
vn -0.2603 -0.9655 0.0000
vn -0.1171 -0.9894 -0.0864
vn 0.1171 -0.9894 -0.0864
vn 0.2603 -0.9655 0.0000
vn 0.1171 -0.9894 0.0864
vn -0.0987 -0.9926 0.0710
vn -0.2180 -0.9759 0.0000
vn -0.0987 -0.9926 -0.0710
vn 0.0987 -0.9926 -0.0710
vn 0.2180 -0.9759 0.0000
vn 0.0987 -0.9926 0.0710
vn -0.0849 -0.9946 0.0596
vn -0.1859 -0.9826 0.0000
vn -0.0849 -0.9946 -0.0596
vn 0.0849 -0.9946 -0.0596
vn 0.1859 -0.9826 0.0000
vn 0.0849 -0.9946 0.0596
usemtl Leaves.002
s off
f 55/37/9 14/38/9 16/39/9 56/40/9
f 56/41/10 16/42/10 18/43/10 57/44/10
f 57/45/11 18/46/11 20/47/11 58/48/11
f 58/49/12 20/50/12 22/51/12 59/52/12
f 16/53/13 14/54/13 24/55/13 22/56/13 20/57/13 18/58/13
f 59/59/14 22/60/14 24/61/14 60/62/14
f 60/63/15 24/64/15 14/65/15 55/66/15
f 13/67/16 15/68/16 17/69/16 19/70/16 21/71/16 23/72/16
f 89/73/17 54/74/17 25/75/17 90/76/17
f 84/77/18 53/78/18 26/79/18 79/80/18
f 78/81/19 52/82/19 27/83/19 73/84/19
f 72/85/20 51/86/20 28/87/20 67/88/20
f 66/89/21 50/90/21 29/91/21 61/92/21
f 88/93/22 49/94/22 54/95/22 89/96/22
f 83/97/23 48/98/23 53/99/23 84/100/23
f 77/101/24 47/102/24 52/103/24 78/104/24
f 71/105/25 46/106/25 51/107/25 72/108/25
f 65/109/26 45/110/26 50/111/26 66/112/26
f 87/113/27 44/114/27 49/115/27 88/116/27
f 82/117/28 43/118/28 48/119/28 83/120/28
f 76/121/29 42/122/29 47/123/29 77/124/29
f 70/125/30 41/126/30 46/127/30 71/128/30
f 64/129/31 40/130/31 45/131/31 65/132/31
f 86/133/32 39/134/32 44/135/32 87/136/32
f 81/137/33 38/138/33 43/139/33 82/140/33
f 75/141/34 37/142/34 42/143/34 76/144/34
f 69/145/35 36/146/35 41/147/35 70/148/35
f 63/149/36 35/150/36 40/151/36 64/152/36
f 85/153/37 34/154/37 39/155/37 86/156/37
f 80/157/38 33/158/38 38/159/38 81/160/38
f 74/161/39 32/162/39 37/163/39 75/164/39
f 68/165/40 31/166/40 36/167/40 69/168/40
f 62/169/41 30/170/41 35/171/41 63/172/41
f 90/173/42 25/174/42 34/175/42 85/176/42
f 79/177/43 26/178/43 33/179/43 80/180/43
f 73/181/44 27/182/44 32/183/44 74/184/44
f 67/185/45 28/186/45 31/187/45 68/188/45
f 61/189/46 29/190/46 30/191/46 62/192/46
f 50/193/47 60/194/47 55/195/47 29/196/47
f 45/197/48 59/198/48 60/199/48 50/200/48
f 40/201/49 58/202/49 59/203/49 45/204/49
f 35/205/50 57/206/50 58/207/50 40/208/50
f 30/209/51 56/210/51 57/211/51 35/212/51
f 29/213/52 55/214/52 56/215/52 30/216/52
f 28/217/53 61/218/53 62/219/53 31/220/53
f 31/221/54 62/222/54 63/223/54 36/224/54
f 36/225/55 63/226/55 64/227/55 41/228/55
f 41/229/56 64/230/56 65/231/56 46/232/56
f 46/233/57 65/234/57 66/235/57 51/236/57
f 51/237/58 66/238/58 61/239/58 28/240/58
f 27/241/59 67/242/59 68/243/59 32/244/59
f 32/245/60 68/246/60 69/247/60 37/248/60
f 37/249/61 69/250/61 70/251/61 42/252/61
f 42/253/62 70/254/62 71/255/62 47/256/62
f 47/257/63 71/258/63 72/259/63 52/260/63
f 52/261/64 72/262/64 67/263/64 27/264/64
f 26/265/65 73/266/65 74/267/65 33/268/65
f 33/269/66 74/270/66 75/271/66 38/272/66
f 38/273/67 75/274/67 76/275/67 43/276/67
f 43/277/68 76/278/68 77/279/68 48/280/68
f 48/281/69 77/282/69 78/283/69 53/284/69
f 53/285/70 78/286/70 73/287/70 26/288/70
f 25/289/71 79/290/71 80/291/71 34/292/71
f 34/293/72 80/294/72 81/295/72 39/296/72
f 39/297/73 81/298/73 82/299/73 44/300/73
f 44/301/74 82/302/74 83/303/74 49/304/74
f 49/305/75 83/306/75 84/307/75 54/308/75
f 54/309/76 84/310/76 79/311/76 25/312/76
f 13/313/77 90/314/77 85/315/77 15/316/77
f 15/317/78 85/318/78 86/319/78 17/320/78
f 17/321/79 86/322/79 87/323/79 19/324/79
f 19/325/80 87/326/80 88/327/80 21/328/80
f 21/329/81 88/330/81 89/331/81 23/332/81
f 23/333/82 89/334/82 90/335/82 13/336/82
